# 3ds Max Wavefront OBJ Exporter v0.97b - (c)2007 guruware
# File Created: 03.06.2021 11:14:55

#
# object Mesh_Collider_Tower
#

v  15.8845 73.0691 0.0665
v  23.8322 73.0691 0.0901
v  23.8322 73.0691 23.2738
v  14.5903 73.0691 3.3930
v  11.3978 73.0691 4.7178
v  11.6446 73.0691 23.3911
v  -0.1479 4.7145 -0.3534
v  5.5715 4.6898 0.0901
v  5.8126 4.8764 8.4239
v  -0.2897 4.8764 8.5412
v  -1.7140 4.8211 1.7123
v  -0.4737 4.8211 1.2091
v  -22.5931 73.0690 -0.6032
v  6.2315 73.0690 -0.6105
v  8.4014 73.0690 3.7580
v  -22.5932 73.0690 24.0499
v  12.1156 73.0690 4.6729
v  12.2544 73.0690 23.3911
v  -6.0010 4.8569 8.3624
v  -7.1265 4.8569 -0.6032
v  -3.9255 4.8111 -0.3051
v  1.5054 4.8569 8.5413
v  -1.4372 4.8111 1.8303
v  -3.0284 4.8111 1.2247
v  -22.5931 73.0690 0.6951
v  -22.5931 73.0690 -23.8118
v  8.5561 73.0690 -3.3563
v  6.0783 73.0690 1.0929
v  11.9206 73.0690 -22.9848
v  12.1480 73.0690 -4.4273
v  -7.0436 4.7157 0.6951
v  -7.1937 4.7157 -8.0635
v  -3.7171 4.7389 0.5659
v  -1.1945 4.6734 -7.9426
v  -1.9171 4.7389 -1.8115
v  -3.4075 4.7389 -0.9700
v  15.8483 73.0691 0.4198
v  14.6918 73.0691 -3.4120
v  23.8322 73.0691 -22.8675
v  23.8322 73.0691 0.4041
v  11.3844 73.0691 -4.4151
v  11.5285 73.0691 -22.9848
v  5.5715 4.6734 0.4041
v  -0.0445 4.7173 0.1798
v  -0.9989 4.7173 -1.4859
v  5.5496 4.6735 -7.8981
v  -2.7366 4.7173 -1.6223
v  -1.6608 4.6735 -7.9426
# 48 vertices

vn 0.0000 1.0000 0.0000
vn 0.0000 1.0000 -0.0000
vn 0.0030 0.0054 -1.0000
vn 0.0772 -0.0206 -0.9968
vn 0.9661 -0.2580 0.0000
vn 0.9678 -0.2509 -0.0224
vn 0.0094 -0.2151 0.9765
vn 0.0188 -0.2159 0.9762
vn -0.9854 0.1696 0.0130
vn -0.9639 0.1764 0.1996
vn -0.9107 0.2124 -0.3543
vn -0.9508 0.2243 -0.2136
vn -0.3808 0.1136 -0.9177
vn -0.3736 0.1119 -0.9208
vn -0.0000 1.0000 -0.0000
vn -0.9717 -0.2364 -0.0000
vn -0.9680 -0.2195 0.1215
vn -0.0003 -0.0001 -1.0000
vn 0.0925 -0.0182 -0.9955
vn 0.0185 -0.2155 0.9763
vn -0.0232 -0.2294 0.9731
vn 0.9809 -0.1945 -0.0073
vn 0.9145 -0.0569 -0.4006
vn 0.8875 -0.1340 -0.4408
vn 0.8559 -0.1247 -0.5019
vn 0.2392 -0.0040 -0.9710
vn 0.3555 -0.0317 -0.9341
vn -0.0000 1.0000 0.0000
vn -0.9751 -0.2218 -0.0000
vn -0.9762 -0.2161 0.0167
vn -0.0139 -0.0057 0.9999
vn 0.0387 0.0088 0.9992
vn 0.0234 -0.2195 -0.9753
vn 0.0181 -0.2181 -0.9758
vn 0.9815 -0.1909 -0.0120
vn 0.9736 -0.1959 0.1168
vn 0.8657 -0.1347 0.4821
vn 0.9705 -0.1406 0.1956
vn 0.2857 -0.0221 0.9581
vn 0.4909 -0.0556 0.8694
vn 0.0020 -0.0005 1.0000
vn -0.0399 0.0058 0.9992
vn -0.9347 0.2163 0.2821
vn -0.8486 0.2085 0.4863
vn 0.9661 -0.2582 0.0000
vn 0.9662 -0.2580 -0.0025
vn -0.2890 0.0932 0.9528
vn -0.0781 0.0568 0.9953
vn -0.9794 0.2020 -0.0076
vn -0.9743 0.1512 -0.1669
vn 0.0093 -0.2165 -0.9762
vn 0.0060 -0.2153 -0.9765
vn -0.0064 -1.0000 0.0038
vn -0.0145 -0.9999 0.0018
vn 0.0070 -1.0000 0.0014
vn 0.0063 -1.0000 -0.0001
vn -0.0559 -0.9968 0.0563
vn -0.0061 -0.9997 0.0226
vn -0.0067 -1.0000 0.0000
vn -0.0080 -1.0000 0.0046
vn 0.0065 -0.9999 0.0114
vn -0.0072 -0.9999 0.0071
vn -0.0021 -1.0000 0.0055
vn -0.0002 -1.0000 0.0069
vn 0.0030 -1.0000 0.0075
vn 0.0001 -1.0000 0.0075
vn -0.0005 -1.0000 0.0068
vn -0.0000 -1.0000 0.0068
# 68 vertex normals

vt 0.0000 0.5000 0.0000
vt 0.0000 1.0000 0.0000
vt 1.0000 1.0000 0.0000
vt 0.3218 0.1782 0.0000
vt 0.5000 0.0000 0.0000
vt 1.0000 0.0000 0.0000
vt 1.0000 0.5550 0.0000
vt 0.7726 0.7374 0.0000
vt 0.0000 0.0000 0.0000
vt 0.4450 1.0000 0.0000
# 10 texture coords

o Mesh_Collider_Tower
g Mesh_Collider_Tower
s 1
f 3/3/2 2/2/1 1/1/1 
f 1/1/1 4/4/2 3/3/2 
f 3/3/2 4/4/2 5/5/2 
f 5/5/2 6/6/2 3/3/2 
s off
f 7/1/3 1/1/3 2/2/3 
f 2/2/4 8/2/4 7/1/4 
f 8/2/5 2/2/5 3/3/5 
f 3/3/6 9/3/6 8/2/6 
f 9/3/7 3/3/7 6/6/7 
f 6/6/8 10/6/8 9/3/8 
f 10/6/9 6/6/9 5/5/9 
f 5/5/10 11/5/10 10/6/10 
f 12/4/11 4/4/11 1/1/11 
f 1/1/12 7/1/12 12/4/12 
f 11/5/13 5/5/13 4/4/13 
f 4/4/14 12/4/14 11/5/14 
s 4
f 15/8/15 14/7/2 13/6/2 
f 13/6/2 16/9/1 15/8/15 
f 16/9/1 18/2/1 17/10/2 
f 17/10/2 15/8/15 16/9/1 
s off
f 19/9/16 16/9/16 13/6/16 
f 13/6/17 20/6/17 19/9/17 
f 20/6/18 13/6/18 14/7/18 
f 14/7/19 21/7/19 20/6/19 
f 22/2/20 18/2/20 16/9/20 
f 16/9/21 19/9/21 22/2/21 
f 23/10/22 17/10/22 18/2/22 
f 18/2/23 22/2/23 23/10/23 
f 21/7/24 14/7/24 15/8/24 
f 15/8/25 24/8/25 21/7/25 
f 24/8/26 15/8/26 17/10/26 
f 17/10/27 23/10/27 24/8/27 
s 4
f 27/8/1 26/9/1 25/6/1 
f 25/6/1 28/7/1 27/8/1 
f 29/2/28 26/9/1 27/8/1 
f 27/8/1 30/10/28 29/2/28 
s off
f 31/6/29 25/6/29 26/9/29 
f 26/9/30 32/9/30 31/6/30 
f 33/7/31 28/7/31 25/6/31 
f 25/6/32 31/6/32 33/7/32 
f 32/9/33 26/9/33 29/2/33 
f 29/2/34 34/2/34 32/9/34 
f 34/2/35 29/2/35 30/10/35 
f 30/10/36 35/10/36 34/2/36 
f 36/8/37 27/8/37 28/7/37 
f 28/7/38 33/7/38 36/8/38 
f 35/10/39 30/10/39 27/8/39 
f 27/8/40 36/8/40 35/10/40 
s 1
f 39/3/1 38/4/1 37/1/2 
f 37/1/2 40/2/1 39/3/1 
f 39/3/1 42/6/1 41/5/1 
f 41/5/1 38/4/1 39/3/1 
s off
f 43/2/41 40/2/41 37/1/41 
f 37/1/42 44/1/42 43/2/42 
f 44/1/43 37/1/43 38/4/43 
f 38/4/44 45/4/44 44/1/44 
f 46/3/45 39/3/45 40/2/45 
f 40/2/46 43/2/46 46/3/46 
f 45/4/47 38/4/47 41/5/47 
f 41/5/48 47/5/48 45/4/48 
f 47/5/49 41/5/49 42/6/49 
f 42/6/50 48/6/50 47/5/50 
f 48/6/51 42/6/51 39/3/51 
f 39/3/52 46/3/52 48/6/52 
f 21/7/53 24/8/53 19/9/53 
f 19/9/54 20/6/54 21/7/54 
f 36/8/55 33/7/55 31/6/55 
f 31/6/56 32/9/56 36/8/56 
f 9/3/57 12/4/57 7/1/57 
f 7/1/58 8/2/58 9/3/58 
f 45/4/59 46/3/59 43/2/59 
f 43/2/60 44/1/60 45/4/60 
f 34/2/61 35/10/61 36/8/61 
f 36/8/62 32/9/62 34/2/62 
f 24/8/63 23/10/63 19/9/63 
f 23/10/64 22/2/64 19/9/64 
f 10/6/65 11/5/65 12/4/65 
f 12/4/66 9/3/66 10/6/66 
f 45/4/67 47/5/67 48/6/67 
f 48/6/68 46/3/68 45/4/68 
# 80 faces

