# 3ds Max Wavefront OBJ Exporter v0.97b - (c)2007 guruware
# File Created: 31.05.2021 09:13:58

#
# object Fenetre_LD
#

v  -0.5000 0.7500 -0.2663
v  -0.5000 0.0000 -0.2663
v  -0.5000 0.0000 0.2663
v  -0.5000 0.7500 0.2663
v  0.5000 0.0000 -0.2663
v  0.5000 0.7500 -0.2663
v  0.5000 0.7500 0.2663
v  0.5000 0.0000 0.2663
v  -0.5000 0.7500 -2.5000
v  0.5000 0.7500 -2.5000
v  0.5000 0.0000 -2.5000
v  -0.5000 0.0000 -2.5000
v  -0.5000 3.0000 0.2663
v  0.5000 3.0000 0.2663
v  0.5000 3.0000 -0.2663
v  -0.5000 3.0000 -0.2663
v  -0.5000 1.2500 2.5000
v  0.5000 1.2500 2.5000
v  0.5000 3.0000 2.5000
v  -0.5000 3.0000 2.5000
v  -0.5000 1.2500 -2.5000
v  0.5000 1.2500 -2.5000
v  -0.5000 0.0000 2.5000
v  0.5000 0.0000 2.5000
v  0.5000 0.7500 2.5000
v  -0.5000 0.7500 2.5000
v  -0.5000 1.2500 -0.2663
v  -0.5000 1.2500 0.2663
v  0.5000 1.2500 0.2663
v  0.5000 1.2500 -0.2663
v  -0.5000 3.0000 -2.5000
v  0.5000 3.0000 -2.5000
v  -0.5000 0.0000 -2.3969
v  -0.5000 0.7500 -2.3969
v  -0.5000 0.7500 2.3969
v  -0.5000 0.0000 2.3969
v  0.5000 0.7500 -2.3969
v  0.5000 0.0000 -2.3969
v  0.5000 0.0000 2.3969
v  0.5000 0.7500 2.3969
v  0.5000 3.0000 2.3969
v  -0.5000 3.0000 2.3969
v  -0.5000 3.0000 -2.3969
v  0.5000 3.0000 -2.3969
v  -0.5000 1.2500 -2.3969
v  -0.5000 1.2500 2.3969
v  0.5000 1.2500 2.3969
v  0.5000 1.2500 -2.3969
v  0.1667 1.2500 0.2663
v  -0.1667 1.2500 0.2663
v  -0.1667 1.2500 -0.2663
v  0.1667 1.2500 -0.2663
v  0.1667 0.7500 0.2663
v  0.1667 0.7500 -0.2663
v  -0.1667 0.7500 -0.2663
v  -0.1667 0.7500 0.2663
v  -0.5000 0.0000 -1.8642
v  -0.5000 0.7500 -1.8642
v  -0.5000 0.0000 -1.3316
v  -0.5000 0.7500 -1.3316
v  -0.5000 0.0000 -0.7990
v  -0.5000 0.7500 -0.7990
v  -0.5000 0.7500 1.8642
v  -0.5000 0.0000 1.8642
v  -0.5000 0.7500 1.3316
v  -0.5000 0.0000 1.3316
v  -0.5000 0.7500 0.7990
v  -0.5000 0.0000 0.7990
v  0.5000 0.7500 -1.8642
v  0.5000 0.0000 -1.8642
v  0.5000 0.7500 -1.3316
v  0.5000 0.0000 -1.3316
v  0.5000 0.7500 -0.7990
v  0.5000 0.0000 -0.7990
v  0.5000 0.0000 1.8642
v  0.5000 0.7500 1.8642
v  0.5000 0.0000 1.3316
v  0.5000 0.7500 1.3316
v  0.5000 0.0000 0.7990
v  0.5000 0.7500 0.7990
v  0.1667 0.7500 1.3316
v  0.1667 0.7500 0.7990
v  -0.1667 0.7500 0.7990
v  -0.1667 0.7500 1.3316
v  -0.1667 0.7500 -1.3316
v  -0.1667 0.7500 -0.7990
v  0.1667 0.7500 -0.7990
v  0.1667 0.7500 -1.3316
v  0.1667 0.7500 2.3969
v  0.1667 1.2500 2.3969
v  -0.1667 1.2500 2.3969
v  -0.1667 0.7500 2.3969
v  0.1667 1.2500 -2.3969
v  0.1667 0.7500 -2.3969
v  -0.1667 0.7500 -2.3969
v  -0.1667 1.2500 -2.3969
v  0.1667 0.7500 1.8642
v  -0.1667 0.7500 1.8642
v  -0.1667 0.7500 -1.8642
v  0.1667 0.7500 -1.8642
v  0.5000 3.0000 1.8642
v  -0.5000 3.0000 1.8642
v  0.5000 3.0000 1.3316
v  -0.5000 3.0000 1.3316
v  0.5000 3.0000 0.7990
v  -0.5000 3.0000 0.7990
v  -0.5000 3.0000 -1.8642
v  0.5000 3.0000 -1.8642
v  -0.5000 3.0000 -1.3316
v  0.5000 3.0000 -1.3316
v  -0.5000 3.0000 -0.7990
v  0.5000 3.0000 -0.7990
v  -0.5000 1.2500 -1.8642
v  -0.5000 1.2500 -1.3316
v  -0.5000 1.2500 -0.7990
v  -0.5000 1.2500 1.8642
v  -0.5000 1.2500 1.3316
v  -0.5000 1.2500 0.7990
v  0.5000 1.2500 1.8642
v  0.5000 1.2500 1.3316
v  0.5000 1.2500 0.7990
v  0.5000 1.2500 -1.8642
v  0.5000 1.2500 -1.3316
v  0.5000 1.2500 -0.7990
v  0.1667 1.2500 1.3316
v  -0.1667 1.2500 1.3316
v  -0.1667 1.2500 0.7990
v  0.1667 1.2500 0.7990
v  -0.1667 1.2500 -1.3316
v  0.1667 1.2500 -1.3316
v  0.1667 1.2500 -0.7990
v  -0.1667 1.2500 -0.7990
v  0.1667 1.2500 1.8642
v  0.1667 1.2500 -1.8642
v  -0.1667 1.2500 -1.8642
v  -0.1667 1.2500 1.8642
# 136 vertices

vn -1.0000 0.0000 0.0000
vn 1.0000 -0.0000 -0.0000
vn -0.0000 -1.0000 0.0000
vn -0.0000 0.0000 -1.0000
vn 0.0000 1.0000 -0.0000
vn 0.0000 0.0000 1.0000
# 6 vertex normals

vt 0.5017 0.3640 0.0000
vt 0.5017 0.2968 0.0000
vt 0.5494 0.2968 0.0000
vt 0.5494 0.3640 0.0000
vt 0.5494 0.0199 0.0000
vt 0.5494 0.0871 0.0000
vt 0.5017 0.0871 0.0000
vt 0.5017 0.0199 0.0000
vt 0.2088 0.0710 0.0000
vt 0.1192 0.0710 0.0000
vt 0.1192 0.0233 0.0000
vt 0.2088 0.0233 0.0000
vt 0.2088 0.3384 0.0000
vt 0.1192 0.3384 0.0000
vt 0.1192 0.2712 0.0000
vt 0.2088 0.2712 0.0000
vt 0.2103 0.6925 0.0000
vt 0.3000 0.6925 0.0000
vt 0.3000 0.7403 0.0000
vt 0.2103 0.7403 0.0000
vt 0.2103 0.3355 0.0000
vt 0.3000 0.3355 0.0000
vt 0.3000 0.4923 0.0000
vt 0.2103 0.4923 0.0000
vt 0.2088 0.3832 0.0000
vt 0.1192 0.3832 0.0000
vt 0.2104 0.2235 0.0000
vt 0.3000 0.2235 0.0000
vt 0.3000 0.2907 0.0000
vt 0.2104 0.2907 0.0000
vt 0.5017 0.5656 0.0000
vt 0.5017 0.4088 0.0000
vt 0.5494 0.4088 0.0000
vt 0.5494 0.5656 0.0000
vt 0.5017 0.2888 0.0000
vt 0.5017 0.1319 0.0000
vt 0.5494 0.1319 0.0000
vt 0.5494 0.2888 0.0000
vt 0.2088 0.5401 0.0000
vt 0.1192 0.5401 0.0000
vt 0.3015 0.3640 0.0000
vt 0.3015 0.2968 0.0000
vt 0.3107 0.2968 0.0000
vt 0.3107 0.3640 0.0000
vt 0.7496 0.2968 0.0000
vt 0.7496 0.3640 0.0000
vt 0.7404 0.3640 0.0000
vt 0.7404 0.2968 0.0000
vt 0.7496 0.0199 0.0000
vt 0.7496 0.0871 0.0000
vt 0.7404 0.0871 0.0000
vt 0.7404 0.0199 0.0000
vt 0.3015 0.0871 0.0000
vt 0.3015 0.0199 0.0000
vt 0.3107 0.0199 0.0000
vt 0.3107 0.0871 0.0000
vt 0.1192 0.2620 0.0000
vt 0.2088 0.2620 0.0000
vt 0.2104 0.2142 0.0000
vt 0.3000 0.2142 0.0000
vt 0.3000 0.5016 0.0000
vt 0.2103 0.5016 0.0000
vt 0.2088 0.5493 0.0000
vt 0.1192 0.5493 0.0000
vt 0.3015 0.4088 0.0000
vt 0.3107 0.4088 0.0000
vt 0.7496 0.4088 0.0000
vt 0.7404 0.4088 0.0000
vt 0.3015 0.1319 0.0000
vt 0.3107 0.1319 0.0000
vt 0.7496 0.1319 0.0000
vt 0.7404 0.1319 0.0000
vt 0.3015 0.5656 0.0000
vt 0.3107 0.5656 0.0000
vt 0.7496 0.5656 0.0000
vt 0.7404 0.5656 0.0000
vt 0.3015 0.2888 0.0000
vt 0.3107 0.2888 0.0000
vt 0.7496 0.2888 0.0000
vt 0.7404 0.2888 0.0000
vt 0.0579 0.9246 0.0000
vt 0.0878 0.9246 0.0000
vt 0.0878 0.9723 0.0000
vt 0.0579 0.9723 0.0000
vt 0.0579 0.4978 0.0000
vt 0.0579 0.4501 0.0000
vt 0.0878 0.4501 0.0000
vt 0.0878 0.4978 0.0000
vt 0.3585 0.2968 0.0000
vt 0.3585 0.3640 0.0000
vt 0.4062 0.2968 0.0000
vt 0.4062 0.3640 0.0000
vt 0.4539 0.2968 0.0000
vt 0.4539 0.3640 0.0000
vt 0.6926 0.3640 0.0000
vt 0.6926 0.2968 0.0000
vt 0.6449 0.3640 0.0000
vt 0.6449 0.2968 0.0000
vt 0.5972 0.3640 0.0000
vt 0.5972 0.2968 0.0000
vt 0.6926 0.0871 0.0000
vt 0.6926 0.0199 0.0000
vt 0.6449 0.0871 0.0000
vt 0.6449 0.0199 0.0000
vt 0.5972 0.0871 0.0000
vt 0.5972 0.0199 0.0000
vt 0.3585 0.0199 0.0000
vt 0.3585 0.0871 0.0000
vt 0.4062 0.0199 0.0000
vt 0.4062 0.0871 0.0000
vt 0.4539 0.0199 0.0000
vt 0.4539 0.0871 0.0000
vt 0.1192 0.2142 0.0000
vt 0.2088 0.2142 0.0000
vt 0.1192 0.1665 0.0000
vt 0.2088 0.1665 0.0000
vt 0.1192 0.1188 0.0000
vt 0.2088 0.1188 0.0000
vt 0.2104 0.1665 0.0000
vt 0.3000 0.1665 0.0000
vt 0.2104 0.1188 0.0000
vt 0.3000 0.1188 0.0000
vt 0.2104 0.0710 0.0000
vt 0.3000 0.0710 0.0000
vt 0.2104 0.0233 0.0000
vt 0.3000 0.0233 0.0000
vt 0.0579 0.5933 0.0000
vt 0.0579 0.5455 0.0000
vt 0.0878 0.5455 0.0000
vt 0.0878 0.5933 0.0000
vt 0.0878 0.3546 0.0000
vt 0.0878 0.4024 0.0000
vt 0.0579 0.4024 0.0000
vt 0.0579 0.3546 0.0000
vt 0.0280 0.7337 0.0000
vt 0.0280 0.6888 0.0000
vt 0.0579 0.6887 0.0000
vt 0.0579 0.7337 0.0000
vt 0.1176 0.6888 0.0000
vt 0.1176 0.7337 0.0000
vt 0.0878 0.7337 0.0000
vt 0.0878 0.6887 0.0000
vt 0.0280 0.9246 0.0000
vt 0.0280 0.9723 0.0000
vt 0.1176 0.9723 0.0000
vt 0.1176 0.9246 0.0000
vt 0.0280 0.2591 0.0000
vt 0.0280 0.2142 0.0000
vt 0.0579 0.2142 0.0000
vt 0.0579 0.2592 0.0000
vt 0.1176 0.2142 0.0000
vt 0.1176 0.2591 0.0000
vt 0.0878 0.2592 0.0000
vt 0.0878 0.2142 0.0000
vt 0.0280 0.4978 0.0000
vt 0.0280 0.4501 0.0000
vt 0.1176 0.4501 0.0000
vt 0.1176 0.4978 0.0000
vt 0.0280 0.6410 0.0000
vt 0.0579 0.6410 0.0000
vt 0.1176 0.6410 0.0000
vt 0.0878 0.6410 0.0000
vt 0.0280 0.5933 0.0000
vt 0.1176 0.5933 0.0000
vt 0.0280 0.5455 0.0000
vt 0.1176 0.5455 0.0000
vt 0.1176 0.3069 0.0000
vt 0.0878 0.3069 0.0000
vt 0.0280 0.3069 0.0000
vt 0.0579 0.3069 0.0000
vt 0.1176 0.3546 0.0000
vt 0.0280 0.3546 0.0000
vt 0.1176 0.4024 0.0000
vt 0.0280 0.4024 0.0000
vt 0.3000 0.5493 0.0000
vt 0.2103 0.5493 0.0000
vt 0.3000 0.5971 0.0000
vt 0.2103 0.5971 0.0000
vt 0.3000 0.6448 0.0000
vt 0.2103 0.6448 0.0000
vt 0.2088 0.5971 0.0000
vt 0.1192 0.5971 0.0000
vt 0.2088 0.6448 0.0000
vt 0.1192 0.6448 0.0000
vt 0.2088 0.6925 0.0000
vt 0.1192 0.6925 0.0000
vt 0.2088 0.7403 0.0000
vt 0.1192 0.7403 0.0000
vt 0.3585 0.4088 0.0000
vt 0.3585 0.5656 0.0000
vt 0.4062 0.4088 0.0000
vt 0.4062 0.5656 0.0000
vt 0.4539 0.4088 0.0000
vt 0.4539 0.5656 0.0000
vt 0.6926 0.5656 0.0000
vt 0.6926 0.4088 0.0000
vt 0.6449 0.5656 0.0000
vt 0.6449 0.4088 0.0000
vt 0.5972 0.5656 0.0000
vt 0.5972 0.4088 0.0000
vt 0.3585 0.1319 0.0000
vt 0.3585 0.2888 0.0000
vt 0.4062 0.1319 0.0000
vt 0.4062 0.2888 0.0000
vt 0.4539 0.1319 0.0000
vt 0.4539 0.2888 0.0000
vt 0.6926 0.2888 0.0000
vt 0.6926 0.1319 0.0000
vt 0.6449 0.2888 0.0000
vt 0.6449 0.1319 0.0000
vt 0.5972 0.2888 0.0000
vt 0.5972 0.1319 0.0000
vt 0.0579 0.8292 0.0000
vt 0.0878 0.8292 0.0000
vt 0.0878 0.8769 0.0000
vt 0.0579 0.8769 0.0000
vt 0.0878 0.1187 0.0000
vt 0.0579 0.1187 0.0000
vt 0.0579 0.0710 0.0000
vt 0.0878 0.0710 0.0000
vt 0.0579 0.0233 0.0000
vt 0.0878 0.0233 0.0000
vt 0.0579 0.7814 0.0000
vt 0.0280 0.7814 0.0000
vt 0.0280 0.8292 0.0000
vt 0.0280 0.8769 0.0000
vt 0.0280 0.1665 0.0000
vt 0.0579 0.1665 0.0000
vt 0.0280 0.1187 0.0000
vt 0.0280 0.0710 0.0000
vt 0.0280 0.0233 0.0000
vt 0.0878 0.1665 0.0000
vt 0.1176 0.1665 0.0000
vt 0.1176 0.1187 0.0000
vt 0.1176 0.0710 0.0000
vt 0.1176 0.0233 0.0000
vt 0.1176 0.7814 0.0000
vt 0.0878 0.7814 0.0000
vt 0.1176 0.8292 0.0000
vt 0.1176 0.8769 0.0000
# 240 texture coords

o Fenetre_LD
g Fenetre_LD
s 2
f 1/1/1 2/2/1 3/3/1 
f 3/3/1 4/4/1 1/1/1 
s 4
f 5/5/2 6/6/2 7/7/2 
f 7/7/2 8/8/2 5/5/2 
s 8
f 2/9/3 5/10/3 8/11/3 
f 8/11/3 3/12/3 2/9/3 
s 16
f 9/13/4 10/14/4 11/15/4 
f 11/15/4 12/16/4 9/13/4 
s 32
f 13/17/5 14/18/5 15/19/5 
f 15/19/5 16/20/5 13/17/5 
s 64
f 17/21/6 18/22/6 19/23/6 
f 19/23/6 20/24/6 17/21/6 
s 16
f 21/25/4 22/26/4 10/14/4 
f 10/14/4 9/13/4 21/25/4 
s 64
f 23/27/6 24/28/6 25/29/6 
f 25/29/6 26/30/6 23/27/6 
f 26/30/6 25/29/6 18/22/6 
f 18/22/6 17/21/6 26/30/6 
s 2
f 16/31/1 27/32/1 28/33/1 
f 28/33/1 13/34/1 16/31/1 
s 4
f 14/35/2 29/36/2 30/37/2 
f 30/37/2 15/38/2 14/35/2 
s 16
f 31/39/4 32/40/4 22/26/4 
f 22/26/4 21/25/4 31/39/4 
s 2
f 9/41/1 12/42/1 33/43/1 
f 33/43/1 34/44/1 9/41/1 
f 23/45/1 26/46/1 35/47/1 
f 35/47/1 36/48/1 23/45/1 
s 4
f 11/49/2 10/50/2 37/51/2 
f 37/51/2 38/52/2 11/49/2 
f 25/53/2 24/54/2 39/55/2 
f 39/55/2 40/56/2 25/53/2 
s 8
f 12/16/3 11/15/3 38/57/3 
f 38/57/3 33/58/3 12/16/3 
f 24/28/3 23/27/3 36/59/3 
f 36/59/3 39/60/3 24/28/3 
s 32
f 20/24/5 19/23/5 41/61/5 
f 41/61/5 42/62/5 20/24/5 
f 32/40/5 31/39/5 43/63/5 
f 43/63/5 44/64/5 32/40/5 
s 2
f 21/65/1 9/41/1 34/44/1 
f 34/44/1 45/66/1 21/65/1 
f 26/46/1 17/67/1 46/68/1 
f 46/68/1 35/47/1 26/46/1 
s 4
f 18/69/2 25/53/2 40/56/2 
f 40/56/2 47/70/2 18/69/2 
f 10/50/2 22/71/2 48/72/2 
f 48/72/2 37/51/2 10/50/2 
s 2
f 31/73/1 21/65/1 45/66/1 
f 45/66/1 43/74/1 31/73/1 
f 17/67/1 20/75/1 42/76/1 
f 42/76/1 46/68/1 17/67/1 
s 4
f 19/77/2 18/69/2 47/70/2 
f 47/70/2 41/78/2 19/77/2 
f 22/71/2 32/79/2 44/80/2 
f 44/80/2 48/72/2 22/71/2 
s 8
f 49/81/3 50/82/3 51/83/3 
f 51/83/3 52/84/3 49/81/3 
f 53/85/5 54/86/5 55/87/5 
f 55/87/5 56/88/5 53/85/5 
s 2
f 34/44/1 33/43/1 57/89/1 
f 57/89/1 58/90/1 34/44/1 
f 58/90/1 57/89/1 59/91/1 
f 59/91/1 60/92/1 58/90/1 
f 60/92/1 59/91/1 61/93/1 
f 61/93/1 62/94/1 60/92/1 
f 62/94/1 61/93/1 2/2/1 
f 2/2/1 1/1/1 62/94/1 
f 36/48/1 35/47/1 63/95/1 
f 63/95/1 64/96/1 36/48/1 
f 64/96/1 63/95/1 65/97/1 
f 65/97/1 66/98/1 64/96/1 
f 66/98/1 65/97/1 67/99/1 
f 67/99/1 68/100/1 66/98/1 
f 68/100/1 67/99/1 4/4/1 
f 4/4/1 3/3/1 68/100/1 
s 4
f 38/52/2 37/51/2 69/101/2 
f 69/101/2 70/102/2 38/52/2 
f 70/102/2 69/101/2 71/103/2 
f 71/103/2 72/104/2 70/102/2 
f 72/104/2 71/103/2 73/105/2 
f 73/105/2 74/106/2 72/104/2 
f 74/106/2 73/105/2 6/6/2 
f 6/6/2 5/5/2 74/106/2 
f 40/56/2 39/55/2 75/107/2 
f 75/107/2 76/108/2 40/56/2 
f 76/108/2 75/107/2 77/109/2 
f 77/109/2 78/110/2 76/108/2 
f 78/110/2 77/109/2 79/111/2 
f 79/111/2 80/112/2 78/110/2 
f 80/112/2 79/111/2 8/8/2 
f 8/8/2 7/7/2 80/112/2 
s 8
f 33/58/3 38/57/3 70/113/3 
f 70/113/3 57/114/3 33/58/3 
f 57/114/3 70/113/3 72/115/3 
f 72/115/3 59/116/3 57/114/3 
f 59/116/3 72/115/3 74/117/3 
f 74/117/3 61/118/3 59/116/3 
f 61/118/3 74/117/3 5/10/3 
f 5/10/3 2/9/3 61/118/3 
f 39/60/3 36/59/3 64/119/3 
f 64/119/3 75/120/3 39/60/3 
f 75/120/3 64/119/3 66/121/3 
f 66/121/3 77/122/3 75/120/3 
f 77/122/3 66/121/3 68/123/3 
f 68/123/3 79/124/3 77/122/3 
f 79/124/3 68/123/3 3/125/3 
f 3/125/3 8/126/3 79/124/3 
f 81/127/5 82/128/5 83/129/5 
f 83/129/5 84/130/5 81/127/5 
f 82/128/5 53/85/5 56/88/5 
f 56/88/5 83/129/5 82/128/5 
f 85/131/5 86/132/5 87/133/5 
f 87/133/5 88/134/5 85/131/5 
f 86/132/5 55/87/5 54/86/5 
f 54/86/5 87/133/5 86/132/5 
s 1
f 47/135/4 40/136/4 89/137/4 
f 89/137/4 90/138/4 47/135/4 
f 35/139/4 46/140/4 91/141/4 
f 91/141/4 92/142/4 35/139/4 
s 8
f 29/143/3 49/81/3 52/84/3 
f 52/84/3 30/144/3 29/143/3 
f 27/145/3 51/83/3 50/82/3 
f 50/82/3 28/146/3 27/145/3 
s 1
f 37/147/6 48/148/6 93/149/6 
f 93/149/6 94/150/6 37/147/6 
f 45/151/6 34/152/6 95/153/6 
f 95/153/6 96/154/6 45/151/6 
s 8
f 7/155/5 6/156/5 54/86/5 
f 54/86/5 53/85/5 7/155/5 
f 1/157/5 4/158/5 56/88/5 
f 56/88/5 55/87/5 1/157/5 
f 40/136/5 76/159/5 97/160/5 
f 97/160/5 89/137/5 40/136/5 
f 63/161/5 35/139/5 92/142/5 
f 92/142/5 98/162/5 63/161/5 
f 76/159/5 78/163/5 81/127/5 
f 81/127/5 97/160/5 76/159/5 
f 65/164/5 63/161/5 98/162/5 
f 98/162/5 84/130/5 65/164/5 
f 78/163/5 80/165/5 82/128/5 
f 82/128/5 81/127/5 78/163/5 
f 67/166/5 65/164/5 84/130/5 
f 84/130/5 83/129/5 67/166/5 
f 80/165/5 7/155/5 53/85/5 
f 53/85/5 82/128/5 80/165/5 
f 4/158/5 67/166/5 83/129/5 
f 83/129/5 56/88/5 4/158/5 
f 34/152/5 58/167/5 99/168/5 
f 99/168/5 95/153/5 34/152/5 
f 69/169/5 37/147/5 94/150/5 
f 94/150/5 100/170/5 69/169/5 
f 58/167/5 60/171/5 85/131/5 
f 85/131/5 99/168/5 58/167/5 
f 71/172/5 69/169/5 100/170/5 
f 100/170/5 88/134/5 71/172/5 
f 60/171/5 62/173/5 86/132/5 
f 86/132/5 85/131/5 60/171/5 
f 73/174/5 71/172/5 88/134/5 
f 88/134/5 87/133/5 73/174/5 
f 62/173/5 1/157/5 55/87/5 
f 55/87/5 86/132/5 62/173/5 
f 6/156/5 73/174/5 87/133/5 
f 87/133/5 54/86/5 6/156/5 
s 32
f 42/62/5 41/61/5 101/175/5 
f 101/175/5 102/176/5 42/62/5 
f 102/176/5 101/175/5 103/177/5 
f 103/177/5 104/178/5 102/176/5 
f 104/178/5 103/177/5 105/179/5 
f 105/179/5 106/180/5 104/178/5 
f 106/180/5 105/179/5 14/18/5 
f 14/18/5 13/17/5 106/180/5 
f 44/64/5 43/63/5 107/181/5 
f 107/181/5 108/182/5 44/64/5 
f 108/182/5 107/181/5 109/183/5 
f 109/183/5 110/184/5 108/182/5 
f 110/184/5 109/183/5 111/185/5 
f 111/185/5 112/186/5 110/184/5 
f 112/186/5 111/185/5 16/187/5 
f 16/187/5 15/188/5 112/186/5 
s 2
f 43/74/1 45/66/1 113/189/1 
f 113/189/1 107/190/1 43/74/1 
f 107/190/1 113/189/1 114/191/1 
f 114/191/1 109/192/1 107/190/1 
f 109/192/1 114/191/1 115/193/1 
f 115/193/1 111/194/1 109/192/1 
f 111/194/1 115/193/1 27/32/1 
f 27/32/1 16/31/1 111/194/1 
f 46/68/1 42/76/1 102/195/1 
f 102/195/1 116/196/1 46/68/1 
f 116/196/1 102/195/1 104/197/1 
f 104/197/1 117/198/1 116/196/1 
f 117/198/1 104/197/1 106/199/1 
f 106/199/1 118/200/1 117/198/1 
f 118/200/1 106/199/1 13/34/1 
f 13/34/1 28/33/1 118/200/1 
s 4
f 41/78/2 47/70/2 119/201/2 
f 119/201/2 101/202/2 41/78/2 
f 101/202/2 119/201/2 120/203/2 
f 120/203/2 103/204/2 101/202/2 
f 103/204/2 120/203/2 121/205/2 
f 121/205/2 105/206/2 103/204/2 
f 105/206/2 121/205/2 29/36/2 
f 29/36/2 14/35/2 105/206/2 
f 48/72/2 44/80/2 108/207/2 
f 108/207/2 122/208/2 48/72/2 
f 122/208/2 108/207/2 110/209/2 
f 110/209/2 123/210/2 122/208/2 
f 123/210/2 110/209/2 112/211/2 
f 112/211/2 124/212/2 123/210/2 
f 124/212/2 112/211/2 15/38/2 
f 15/38/2 30/37/2 124/212/2 
s 8
f 125/213/3 126/214/3 127/215/3 
f 127/215/3 128/216/3 125/213/3 
f 128/216/3 127/215/3 50/82/3 
f 50/82/3 49/81/3 128/216/3 
f 129/217/3 130/218/3 131/219/3 
f 131/219/3 132/220/3 129/217/3 
f 132/220/3 131/219/3 52/221/3 
f 52/221/3 51/222/3 132/220/3 
f 47/135/3 90/138/3 133/223/3 
f 133/223/3 119/224/3 47/135/3 
f 119/224/3 133/223/3 125/213/3 
f 125/213/3 120/225/3 119/224/3 
f 120/225/3 125/213/3 128/216/3 
f 128/216/3 121/226/3 120/225/3 
f 121/226/3 128/216/3 49/81/3 
f 49/81/3 29/143/3 121/226/3 
f 93/149/3 48/148/3 122/227/3 
f 122/227/3 134/228/3 93/149/3 
f 134/228/3 122/227/3 123/229/3 
f 123/229/3 130/218/3 134/228/3 
f 130/218/3 123/229/3 124/230/3 
f 124/230/3 131/219/3 130/218/3 
f 131/219/3 124/230/3 30/231/3 
f 30/231/3 52/221/3 131/219/3 
f 45/151/3 96/154/3 135/232/3 
f 135/232/3 113/233/3 45/151/3 
f 113/233/3 135/232/3 129/217/3 
f 129/217/3 114/234/3 113/233/3 
f 114/234/3 129/217/3 132/220/3 
f 132/220/3 115/235/3 114/234/3 
f 115/235/3 132/220/3 51/222/3 
f 51/222/3 27/236/3 115/235/3 
f 91/141/3 46/140/3 116/237/3 
f 116/237/3 136/238/3 91/141/3 
f 136/238/3 116/237/3 117/239/3 
f 117/239/3 126/214/3 136/238/3 
f 126/214/3 117/239/3 118/240/3 
f 118/240/3 127/215/3 126/214/3 
f 127/215/3 118/240/3 28/146/3 
f 28/146/3 50/82/3 127/215/3 
s off
f 98/162/5 97/160/5 81/127/5 
f 81/127/5 84/130/5 98/162/5 
f 126/214/3 125/213/3 133/223/3 
f 133/223/3 136/238/3 126/214/3 
f 136/238/3 133/223/3 90/138/3 
f 90/138/3 91/141/3 136/238/3 
f 91/141/4 90/138/4 89/137/4 
f 89/137/4 92/142/4 91/141/4 
f 92/142/5 89/137/5 97/160/5 
f 97/160/5 98/162/5 92/142/5 
f 100/170/5 99/168/5 85/131/5 
f 85/131/5 88/134/5 100/170/5 
f 94/150/5 95/153/5 99/168/5 
f 99/168/5 100/170/5 94/150/5 
f 93/149/6 96/154/6 95/153/6 
f 95/153/6 94/150/6 93/149/6 
f 134/228/3 135/232/3 96/154/3 
f 96/154/3 93/149/3 134/228/3 
f 130/218/3 129/217/3 135/232/3 
f 135/232/3 134/228/3 130/218/3 
# 272 faces

