# 3ds Max Wavefront OBJ Exporter v0.97b - (c)2007 guruware
# File Created: 28.05.2021 21:59:00

#
# object P_Pusher
#

v  -0.2886 0.1237 0.2894
v  -0.0495 0.1237 0.2894
v  -0.0496 0.1237 0.1874
v  -0.1874 0.1237 0.1874
v  0.0527 0.1237 0.2894
v  0.2853 0.1237 0.2894
v  0.1874 0.1237 0.1874
v  0.0528 0.1237 0.1874
v  -0.1874 0.1237 -0.1874
v  -0.0496 0.1237 -0.1874
v  -0.0495 0.1237 -0.2845
v  -0.2886 0.1237 -0.2845
v  -0.2886 0.0825 0.2894
v  -0.0495 0.0825 0.2894
v  -0.0496 0.0825 0.1874
v  -0.1874 0.0825 0.1874
v  -0.1874 0.0825 -0.1874
v  -0.0496 0.0825 -0.1874
v  -0.0495 0.0825 -0.2845
v  -0.2886 0.0825 -0.2845
v  0.0527 0.0825 0.2894
v  0.2853 0.0825 0.2894
v  0.0495 0.0825 -0.2845
v  0.0496 0.0825 -0.1874
v  0.0496 0.1237 -0.1874
v  0.0495 0.1237 -0.2845
v  0.1874 0.0825 0.1874
v  0.0528 0.0825 0.1874
v  0.1506 0.0825 -0.1566
v  -0.1530 0.0825 -0.1566
v  -0.1530 0.1237 -0.1566
v  0.1506 0.1237 -0.1566
v  -0.1530 0.1237 -0.0134
v  0.1506 0.1237 -0.0134
v  0.1506 0.0825 -0.0134
v  0.1506 0.1237 0.1469
v  0.1506 0.0825 0.1469
v  0.1506 0.0825 0.0069
v  0.1506 0.1237 0.0069
v  -0.1530 0.0825 0.1469
v  -0.1530 0.1237 0.1469
v  -0.1530 0.1237 0.0069
v  -0.1530 0.0825 0.0069
v  -0.1530 0.0825 -0.0134
v  0.2853 0.1237 0.1336
v  0.1874 0.1237 0.1339
v  0.2853 0.0825 0.1336
v  0.1874 0.0825 0.1339
v  0.2853 0.1237 -0.0956
v  0.2853 0.1237 -0.2845
v  0.1874 0.1237 -0.1874
v  0.1874 0.1237 -0.0959
v  0.1874 0.1237 -0.0726
v  0.1874 0.1237 0.1095
v  0.2853 0.1237 0.1097
v  0.2853 0.1237 -0.0726
v  0.2853 0.0825 -0.2845
v  0.2853 0.0825 -0.0956
v  0.2853 0.0825 0.1097
v  0.2853 0.0825 -0.0726
v  0.1874 0.0825 -0.1874
v  0.1874 0.0825 -0.0959
v  0.1874 0.0825 0.1095
v  0.1874 0.0825 -0.0726
v  -0.2886 0.1237 0.1027
v  -0.1874 0.1237 0.1031
v  -0.1874 0.0825 0.1031
v  -0.2886 0.0825 0.1027
v  -0.2886 0.0825 0.0775
v  -0.1874 0.0825 0.0775
v  -0.1874 0.1237 0.0775
v  -0.2886 0.1237 0.0775
v  0.0464 0.1237 0.1469
v  0.0464 0.0825 0.1469
v  0.0275 0.0825 0.1469
v  0.0275 0.1237 0.1469
v  0.0463 0.1237 0.0088
v  0.0273 0.1237 0.0088
v  0.0463 0.0825 0.0088
v  0.0273 0.0825 0.0088
v  0.1707 0.1237 -0.2845
v  0.1704 0.1237 -0.1874
v  0.1465 0.1237 -0.1874
v  0.1468 0.1237 -0.2845
v  0.1468 0.0825 -0.2845
v  0.1707 0.0825 -0.2845
v  0.1704 0.0825 -0.1874
v  0.1465 0.0825 -0.1874
v  -0.2886 0.1237 -0.1045
v  -0.1874 0.1237 -0.1047
v  -0.1874 0.1237 -0.0775
v  -0.2886 0.1237 -0.0779
v  -0.1874 0.0825 -0.1047
v  -0.1874 0.0825 -0.0775
v  -0.2886 0.0825 -0.1045
v  -0.2886 0.0825 -0.0779
# 96 vertices

vn 0.0000 1.0000 -0.0000
vn 0.0000 0.0000 1.0000
vn 1.0000 0.0000 -0.0017
vn 0.0000 0.0000 -1.0000
vn 1.0000 0.0000 0.0018
vn -1.0000 0.0000 0.0018
vn -1.0000 0.0000 -0.0011
vn 1.0000 0.0000 -0.0000
vn -1.0000 0.0000 -0.0000
vn -0.0000 0.0000 1.0000
vn 0.0000 -0.0000 1.0000
vn 0.0006 0.0000 -1.0000
vn -0.0025 -0.0000 1.0000
vn -0.0025 0.0000 1.0000
vn -0.0013 -0.0000 1.0000
vn -0.0013 0.0000 1.0000
vn -0.0033 0.0000 -1.0000
vn 0.0035 -0.0000 -1.0000
vn 0.0035 0.0000 -1.0000
vn -0.0005 0.0000 1.0000
vn -0.0177 -0.0000 -0.9998
vn 0.0102 0.0000 -0.9999
vn -1.0000 -0.0000 0.0012
vn -1.0000 0.0000 0.0012
vn 1.0000 0.0000 -0.0015
vn -1.0000 0.0000 -0.0030
vn 1.0000 0.0000 0.0022
vn 0.0025 0.0000 1.0000
# 28 vertex normals

vt 0.0924 0.7312 0.0000
vt 0.0843 0.4941 0.0000
vt 0.1854 0.4908 0.0000
vt 0.1901 0.6274 0.0000
vt 0.7287 0.0907 0.0000
vt 0.7374 0.3214 0.0000
vt 0.6326 0.2281 0.0000
vt 0.6276 0.0946 0.0000
vt 0.8171 0.2272 0.0000
vt 0.8228 0.0906 0.0000
vt 0.9191 0.0945 0.0000
vt 0.9093 0.3316 0.0000
vt 0.0516 0.7326 0.0000
vt 0.0434 0.4955 0.0000
vt 0.0830 0.4532 0.0000
vt 0.1841 0.4499 0.0000
vt 0.2263 0.4894 0.0000
vt 0.2310 0.6260 0.0000
vt 0.7762 0.2255 0.0000
vt 0.7819 0.0890 0.0000
vt 0.8244 0.0498 0.0000
vt 0.9207 0.0536 0.0000
vt 0.9600 0.0962 0.0000
vt 0.9502 0.3333 0.0000
vt 0.7696 0.0891 0.0000
vt 0.7783 0.3198 0.0000
vt 0.4183 0.7050 0.0000
vt 0.4184 0.6086 0.0000
vt 0.4593 0.6087 0.0000
vt 0.4592 0.7051 0.0000
vt 0.5918 0.2296 0.0000
vt 0.5867 0.0961 0.0000
vt 0.6260 0.0537 0.0000
vt 0.7271 0.0498 0.0000
vt 0.2673 0.0907 0.0000
vt 0.2673 0.3919 0.0000
vt 0.2264 0.3919 0.0000
vt 0.2264 0.0907 0.0000
vt 0.0843 0.3919 0.0000
vt 0.0843 0.0907 0.0000
vt 0.2264 0.0498 0.0000
vt 0.0843 0.0498 0.0000
vt 0.7721 0.9053 0.0000
vt 0.7752 0.9461 0.0000
vt 0.6367 0.9566 0.0000
vt 0.6336 0.9159 0.0000
vt 0.3357 0.3172 0.0000
vt 0.3336 0.2764 0.0000
vt 0.4724 0.2692 0.0000
vt 0.4745 0.3101 0.0000
vt 0.2264 0.4328 0.0000
vt 0.0843 0.4328 0.0000
vt 0.0434 0.3919 0.0000
vt 0.0434 0.0907 0.0000
vt 0.7796 0.6100 0.0000
vt 0.6853 0.7139 0.0000
vt 0.6809 0.5594 0.0000
vt 0.7781 0.5569 0.0000
vt 0.6444 0.7150 0.0000
vt 0.6400 0.5605 0.0000
vt 0.8205 0.6088 0.0000
vt 0.8190 0.5558 0.0000
vt 0.8923 0.3720 0.0000
vt 0.8854 0.5593 0.0000
vt 0.7918 0.4594 0.0000
vt 0.7952 0.3686 0.0000
vt 0.0928 0.8193 0.0000
vt 0.2735 0.8193 0.0000
vt 0.2736 0.9165 0.0000
vt 0.0928 0.9164 0.0000
vt 0.9263 0.5608 0.0000
vt 0.9332 0.3735 0.0000
vt 0.2736 0.9574 0.0000
vt 0.0928 0.9574 0.0000
vt 0.7510 0.4578 0.0000
vt 0.7543 0.3671 0.0000
vt 0.2735 0.7784 0.0000
vt 0.0928 0.7784 0.0000
vt 0.0518 0.9164 0.0000
vt 0.0518 0.8193 0.0000
vt 0.7966 0.3277 0.0000
vt 0.8937 0.3311 0.0000
vt 0.3145 0.8193 0.0000
vt 0.3145 0.9165 0.0000
vt 0.6799 0.5185 0.0000
vt 0.7770 0.5160 0.0000
vt 0.3890 0.4045 0.0000
vt 0.3843 0.5897 0.0000
vt 0.2865 0.4860 0.0000
vt 0.2886 0.4023 0.0000
vt 0.2456 0.4849 0.0000
vt 0.2477 0.4013 0.0000
vt 0.4252 0.5907 0.0000
vt 0.4299 0.4055 0.0000
vt 0.2895 0.3614 0.0000
vt 0.3899 0.3636 0.0000
vt 0.3340 0.9155 0.0000
vt 0.3340 0.8150 0.0000
vt 0.3749 0.8150 0.0000
vt 0.3749 0.9155 0.0000
vt 0.8129 0.9022 0.0000
vt 0.7643 0.8023 0.0000
vt 0.8051 0.7992 0.0000
vt 0.2927 0.2785 0.0000
vt 0.2835 0.0996 0.0000
vt 0.3243 0.0975 0.0000
vt 0.6276 0.8125 0.0000
vt 0.4613 0.0906 0.0000
vt 0.5927 0.9182 0.0000
vt 0.5867 0.8149 0.0000
vt 0.5132 0.2667 0.0000
vt 0.5021 0.0881 0.0000
vt 0.6245 0.7717 0.0000
vt 0.7612 0.7615 0.0000
vt 0.3223 0.0566 0.0000
vt 0.4592 0.0498 0.0000
vt 0.3568 0.6666 0.0000
vt 0.2570 0.7603 0.0000
vt 0.2611 0.6466 0.0000
vt 0.3575 0.6498 0.0000
vt 0.5555 0.6087 0.0000
vt 0.5557 0.7051 0.0000
vt 0.4592 0.7460 0.0000
vt 0.5557 0.7460 0.0000
vt 0.2161 0.7588 0.0000
vt 0.2202 0.6451 0.0000
vt 0.3977 0.6681 0.0000
vt 0.3983 0.6513 0.0000
vt 0.4593 0.5678 0.0000
vt 0.5555 0.5678 0.0000
vt 0.2624 0.6057 0.0000
vt 0.3588 0.6089 0.0000
vt 0.5964 0.6086 0.0000
vt 0.5966 0.7050 0.0000
vt 0.6402 0.4341 0.0000
vt 0.5397 0.5306 0.0000
vt 0.5397 0.3518 0.0000
vt 0.6402 0.3521 0.0000
vt 0.5288 0.8151 0.0000
vt 0.5290 0.9155 0.0000
vt 0.6811 0.4341 0.0000
vt 0.6811 0.3521 0.0000
vt 0.3750 0.7742 0.0000
vt 0.5288 0.7742 0.0000
vt 0.4988 0.5306 0.0000
vt 0.4988 0.3518 0.0000
vt 0.3749 0.9564 0.0000
vt 0.5290 0.9564 0.0000
vt 0.5398 0.3109 0.0000
vt 0.6403 0.3112 0.0000
vt 0.5698 0.9155 0.0000
vt 0.5698 0.8151 0.0000
# 152 texture coords

o P_Pusher
g P_Pusher
s 1
f 1/1/1 2/2/1 3/3/1 
f 3/3/1 4/4/1 1/1/1 
f 5/5/1 6/6/1 7/7/1 
f 7/7/1 8/8/1 5/5/1 
f 9/9/1 10/10/1 11/11/1 
f 11/11/1 12/12/1 9/9/1 
s 2
f 13/13/2 14/14/2 2/2/2 
f 2/2/2 1/1/2 13/13/2 
s 4
f 14/15/3 15/16/3 3/3/3 
f 3/3/3 2/2/3 14/15/3 
s 2
f 15/17/4 16/18/4 4/4/4 
f 4/4/4 3/3/4 15/17/4 
f 17/19/2 18/20/2 10/10/2 
f 10/10/2 9/9/2 17/19/2 
s 4
f 18/21/5 19/22/5 11/11/5 
f 11/11/5 10/10/5 18/21/5 
s 2
f 19/23/4 20/24/4 12/12/4 
f 12/12/4 11/11/4 19/23/4 
f 21/25/2 22/26/2 6/6/2 
f 6/6/2 5/5/2 21/25/2 
f 23/27/6 24/28/6 25/29/6 
f 25/29/6 26/30/6 23/27/6 
f 27/31/4 28/32/4 8/8/4 
f 8/8/4 7/7/4 27/31/4 
s 4
f 28/33/7 21/34/7 5/5/7 
f 5/5/7 8/8/7 28/33/7 
s 2
f 29/35/4 30/36/4 31/37/4 
f 31/37/4 32/38/4 29/35/4 
s 1
f 32/38/1 31/37/1 33/39/1 
f 33/39/1 34/40/1 32/38/1 
s 4
f 29/41/8 32/38/8 34/40/8 
f 34/40/8 35/42/8 29/41/8 
s 2
f 36/43/8 37/44/8 38/45/8 
f 38/45/8 39/46/8 36/43/8 
f 40/47/9 41/48/9 42/49/9 
f 42/49/9 43/50/9 40/47/9 
s 4
f 31/37/9 30/51/9 44/52/9 
f 44/52/9 33/39/9 31/37/9 
s 2
f 34/40/10 33/39/11 44/53/11 
f 44/53/11 35/54/10 34/40/10 
s 1
f 7/55/1 6/56/1 45/57/1 
f 45/57/1 46/58/1 7/55/1 
s 4
f 6/56/8 22/59/8 47/60/8 
f 47/60/8 45/57/8 6/56/8 
f 27/61/9 7/55/9 46/58/9 
f 46/58/9 48/62/9 27/61/9 
s 1
f 49/63/1 50/64/1 51/65/1 
f 51/65/1 52/66/1 49/63/1 
f 53/67/1 54/68/1 55/69/1 
f 55/69/1 56/70/1 53/67/1 
s 2
f 57/71/8 50/64/8 49/63/8 
f 49/63/8 58/72/8 57/71/8 
f 55/69/8 59/73/8 60/74/8 
f 60/74/8 56/70/8 55/69/8 
f 51/65/9 61/75/9 62/76/9 
f 62/76/9 52/66/9 51/65/9 
f 63/77/9 54/68/9 53/67/9 
f 53/67/9 64/78/9 63/77/9 
s 4
f 53/67/12 56/70/12 60/79/12 
f 60/79/12 64/80/12 53/67/12 
f 62/81/13 58/82/13 49/63/13 
f 49/63/13 52/66/14 62/81/13 
f 63/83/15 59/84/15 55/69/15 
f 55/69/15 54/68/16 63/83/15 
s 2
f 46/58/17 45/57/17 47/85/17 
f 47/85/17 48/86/17 46/58/17 
s 1
f 65/87/1 1/88/1 4/89/1 
f 4/89/1 66/90/1 65/87/1 
s 4
f 4/89/8 16/91/8 67/92/8 
f 67/92/8 66/90/8 4/89/8 
f 13/93/9 1/88/9 65/87/9 
f 65/87/9 68/94/9 13/93/9 
s 2
f 65/87/18 66/90/19 67/95/18 
f 67/95/18 68/96/18 65/87/18 
f 69/97/20 70/98/20 71/99/20 
f 71/99/20 72/100/20 69/97/20 
s 4
f 37/101/2 36/43/2 73/102/2 
f 73/102/2 74/103/2 37/101/2 
f 41/48/2 40/104/2 75/105/2 
f 75/105/2 76/106/2 41/48/2 
s 1
f 36/43/1 39/46/1 77/107/1 
f 77/107/1 73/102/1 36/43/1 
f 42/49/1 41/48/1 76/106/1 
f 76/106/1 78/108/1 42/49/1 
s 4
f 39/46/21 38/109/21 79/110/21 
f 79/110/21 77/107/21 39/46/21 
f 43/111/22 42/49/22 78/108/22 
f 78/108/22 80/112/22 43/111/22 
s 2
f 79/113/23 74/114/24 73/102/23 
f 73/102/23 77/107/23 79/113/23 
f 75/115/25 80/116/25 78/108/25 
f 78/108/25 76/106/25 75/115/25 
s 1
f 51/117/1 50/118/1 81/119/1 
f 81/119/1 82/120/1 51/117/1 
f 26/30/1 25/29/1 83/121/1 
f 83/121/1 84/122/1 26/30/1 
s 4
f 23/123/4 26/30/4 84/122/4 
f 84/122/4 85/124/4 23/123/4 
f 50/118/4 57/125/4 86/126/4 
f 86/126/4 81/119/4 50/118/4 
f 61/127/2 51/117/2 82/120/2 
f 82/120/2 87/128/2 61/127/2 
f 25/29/2 24/129/2 88/130/2 
f 88/130/2 83/121/2 25/29/2 
s 2
f 86/131/26 87/132/26 82/120/26 
f 82/120/26 81/119/26 86/131/26 
f 84/122/27 83/121/27 88/133/27 
f 88/133/27 85/134/27 84/122/27 
s 1
f 9/135/1 12/136/1 89/137/1 
f 89/137/1 90/138/1 9/135/1 
f 72/100/1 71/99/1 91/139/1 
f 91/139/1 92/140/1 72/100/1 
s 4
f 17/141/8 9/135/8 90/138/8 
f 90/138/8 93/142/8 17/141/8 
f 71/99/8 70/143/8 94/144/8 
f 94/144/8 91/139/8 71/99/8 
f 12/136/9 20/145/9 95/146/9 
f 95/146/9 89/137/9 12/136/9 
f 69/147/9 72/100/9 92/140/9 
f 92/140/9 96/148/9 69/147/9 
s 2
f 89/137/28 95/149/28 93/150/28 
f 93/150/28 90/138/28 89/137/28 
f 96/151/18 92/140/18 91/139/18 
f 91/139/18 94/152/19 96/151/18 
# 124 faces

