# 3ds Max Wavefront OBJ Exporter v0.97b - (c)2007 guruware
# File Created: 26.05.2021 16:24:11

#
# object P_h_2
#

v  -7.9828 20.1126 89.5359
v  -7.9828 51.7475 89.5359
v  -7.9828 51.7475 57.9011
v  -7.9828 20.1127 57.9011
v  23.6520 20.1126 89.5359
v  23.6520 20.1127 57.9011
v  23.6520 51.7475 57.9011
v  23.6520 51.7475 89.5359
v  -11.0687 0.4210 11.3757
v  -11.0687 38.2276 11.3757
v  -11.0687 38.2276 -26.4309
v  -11.0687 0.4210 -26.4309
v  26.7379 0.4210 11.3757
v  26.7379 0.4210 -26.4309
v  26.7379 38.2276 -26.4309
v  26.7379 38.2276 11.3757
v  -25.3300 15.6692 -18.1010
v  -25.3300 44.7529 -18.1010
v  -25.3300 44.7529 -47.1848
v  -25.3300 15.6692 -47.1848
v  3.7537 15.6692 -18.1010
v  3.7537 15.6692 -47.1848
v  3.7537 44.7529 -47.1848
v  3.7537 44.7529 -18.1010
v  13.7267 25.9506 -18.1010
v  13.7267 55.0343 -18.1010
v  13.7267 55.0343 -47.1847
v  13.7267 25.9506 -47.1847
v  42.8105 25.9506 -18.1010
v  42.8105 25.9506 -47.1847
v  42.8105 55.0343 -47.1847
v  42.8105 55.0343 -18.1010
v  -49.7472 42.3378 -25.6614
v  -49.7472 71.4215 -25.6614
v  -49.7472 71.4215 -54.7450
v  -49.7472 42.3378 -54.7450
v  -20.6635 42.3378 -25.6613
v  -20.6635 42.3378 -54.7450
v  -20.6634 71.4215 -54.7450
v  -20.6635 71.4215 -25.6613
v  -61.2330 73.2852 -35.9735
v  -61.2330 102.3689 -35.9735
v  -61.2330 102.3689 -65.0573
v  -61.2330 73.2852 -65.0573
v  -32.1493 73.2852 -35.9736
v  -32.1493 73.2852 -65.0573
v  -32.1492 102.3689 -65.0573
v  -32.1493 102.3689 -35.9736
v  -70.0274 93.8544 -48.8200
v  -70.0274 122.9381 -48.8200
v  -70.0274 122.9381 -77.9037
v  -70.0274 93.8544 -77.9037
v  -40.9437 93.8544 -48.8200
v  -40.9437 93.8544 -77.9037
v  -40.9437 122.9381 -77.9037
v  -40.9437 122.9381 -48.8200
v  -63.8714 89.3643 -71.9984
v  -63.8714 118.4480 -71.9984
v  -63.8714 118.4480 -101.0821
v  -63.8714 89.3643 -101.0821
v  -34.7877 89.3643 -71.9984
v  -34.7877 89.3643 -101.0821
v  -34.7877 118.4480 -101.0821
v  -34.7877 118.4480 -71.9984
v  15.3324 80.4207 -111.4209
v  15.3324 109.5044 -111.4209
v  15.3324 109.5044 -140.5046
v  15.3324 80.4207 -140.5046
v  44.4161 80.4206 -111.4209
v  44.4161 80.4207 -140.5046
v  44.4161 109.5044 -140.5046
v  44.4161 109.5044 -111.4209
v  25.3882 73.2852 -63.2418
v  25.3882 102.3689 -63.2418
v  25.3882 102.3689 -92.3255
v  25.3882 73.2852 -92.3255
v  54.4719 73.2852 -63.2418
v  54.4719 73.2852 -92.3255
v  54.4719 102.3689 -92.3255
v  54.4719 102.3689 -63.2418
v  37.3080 93.8544 -85.7413
v  37.3080 122.9381 -85.7413
v  37.3080 122.9381 -114.8250
v  37.3080 93.8544 -114.8250
v  66.3917 93.8544 -85.7413
v  66.3917 93.8544 -114.8250
v  66.3917 122.9381 -114.8250
v  66.3917 122.9381 -85.7413
v  37.1493 51.5425 -40.7616
v  37.1493 80.6262 -40.7616
v  37.1493 80.6262 -69.8452
v  37.1493 51.5425 -69.8453
v  66.2330 51.5425 -40.7616
v  66.2331 51.5425 -69.8453
v  66.2331 80.6262 -69.8452
v  66.2331 80.6262 -40.7616
v  6.7570 17.1857 35.3191
v  6.7570 36.3482 35.3191
v  6.7570 36.3482 6.2353
v  6.7570 17.1857 6.2353
v  39.7008 17.1856 35.3191
v  39.7008 17.1857 6.2353
v  39.7008 36.3482 6.2354
v  39.7008 36.3482 35.3191
v  -0.1029 31.1937 44.4782
v  -0.1029 47.0686 44.4782
v  -0.1029 47.0686 28.6032
v  -0.1029 31.1937 28.6032
v  15.7721 31.1937 44.4782
v  15.7721 31.1937 28.6032
v  15.7721 47.0686 28.6032
v  15.7721 47.0686 44.4782
v  -5.8625 42.1747 68.7241
v  -5.8625 69.5690 68.7241
v  -5.8625 69.5690 41.3298
v  -5.8625 42.1747 41.3298
v  21.5317 42.1747 68.7241
v  21.5317 42.1747 41.3298
v  21.5317 69.5690 41.3298
v  21.5317 69.5689 68.7241
v  19.3914 66.2799 76.4661
v  19.3914 79.2868 76.4661
v  19.3914 79.2868 60.3030
v  19.3914 66.2799 60.3030
v  51.2601 66.2799 76.4661
v  51.2601 66.2799 60.3030
v  51.2601 79.2868 60.3030
v  51.2601 79.2868 76.4661
v  43.8203 72.3656 79.6719
v  43.8203 90.5320 79.6719
v  43.8203 90.5320 57.0972
v  43.8203 72.3657 57.0972
v  70.0274 72.3656 79.6719
v  70.0274 72.3657 57.0972
v  70.0274 90.5320 57.0972
v  70.0274 90.5320 79.6719
v  -6.7073 72.4800 91.7791
v  -6.7073 101.5637 91.7791
v  -6.7073 101.5637 62.6954
v  -6.7073 72.4800 62.6954
v  22.3764 72.4800 91.7791
v  22.3764 72.4800 62.6954
v  22.3764 101.5637 62.6954
v  22.3764 101.5637 91.7791
v  -2.0305 99.2387 100.9016
v  -2.0305 118.9688 100.9016
v  -2.0305 118.9688 81.1715
v  -2.0305 99.2387 81.1715
v  17.6997 99.2387 100.9016
v  17.6997 99.2387 81.1715
v  17.6997 118.9688 81.1715
v  17.6997 118.9688 100.9016
v  -2.0305 80.0619 108.8740
v  -2.0305 108.3854 108.8740
v  -2.0305 108.3854 98.2421
v  -2.0305 80.0619 98.2421
v  17.6997 80.0619 108.8740
v  17.6997 80.0619 98.2421
v  17.6997 108.3854 98.2421
v  17.6997 108.3854 108.8740
v  -2.0305 107.1837 123.4580
v  -2.0305 118.2463 123.4580
v  -2.0305 118.2463 97.9146
v  -2.0305 107.1837 97.9145
v  17.6997 107.1837 123.4580
v  17.6997 107.1837 97.9145
v  17.6997 118.2463 97.9146
v  17.6997 118.2462 123.4580
# 168 vertices

vn -1.0000 0.0000 -0.0000
vn 1.0000 -0.0000 0.0000
vn 0.0000 1.0000 0.0000
vn 0.0000 -0.0000 1.0000
vn -0.0000 -1.0000 -0.0000
vn 0.0000 0.0000 -1.0000
vn 1.0000 -0.0000 -0.0000
vn -0.0000 -0.0000 1.0000
vn 0.0000 -1.0000 -0.0000
vn -0.0000 1.0000 0.0000
vn -1.0000 0.0000 0.0000
vn 1.0000 0.0000 0.0000
vn 1.0000 0.0000 -0.0000
# 13 vertex normals

vt 0.2146 0.0833 0.0000
vt 0.1513 0.0833 0.0000
vt 0.1513 0.0200 0.0000
vt 0.2146 0.0200 0.0000
vt 0.2146 0.1466 0.0000
vt 0.2146 0.2099 0.0000
vt 0.1513 0.2099 0.0000
vt 0.1513 0.1466 0.0000
vt 0.0880 0.1466 0.0000
vt 0.0880 0.0833 0.0000
vt 0.2779 0.1466 0.0000
vt 0.2779 0.0833 0.0000
vt 0.0247 0.1466 0.0000
vt 0.0247 0.0833 0.0000
vt 0.8871 0.1145 0.0000
vt 0.8115 0.1145 0.0000
vt 0.8115 0.0388 0.0000
vt 0.8871 0.0388 0.0000
vt 0.8871 0.1901 0.0000
vt 0.8871 0.2657 0.0000
vt 0.8115 0.2657 0.0000
vt 0.8115 0.1901 0.0000
vt 0.7359 0.1901 0.0000
vt 0.7359 0.1145 0.0000
vt 0.9628 0.1901 0.0000
vt 0.9628 0.1145 0.0000
vt 0.6602 0.1901 0.0000
vt 0.6602 0.1145 0.0000
vt 0.1993 0.8596 0.0000
vt 0.1411 0.8596 0.0000
vt 0.1411 0.8015 0.0000
vt 0.1993 0.8015 0.0000
vt 0.1993 0.9178 0.0000
vt 0.1993 0.9760 0.0000
vt 0.1411 0.9760 0.0000
vt 0.1411 0.9178 0.0000
vt 0.0829 0.9178 0.0000
vt 0.0829 0.8596 0.0000
vt 0.2574 0.9178 0.0000
vt 0.2574 0.8596 0.0000
vt 0.0247 0.9178 0.0000
vt 0.0247 0.8596 0.0000
vt 0.4911 0.0782 0.0000
vt 0.4329 0.0782 0.0000
vt 0.4329 0.0200 0.0000
vt 0.4911 0.0200 0.0000
vt 0.4911 0.1364 0.0000
vt 0.4911 0.1946 0.0000
vt 0.4329 0.1946 0.0000
vt 0.4329 0.1364 0.0000
vt 0.3748 0.1364 0.0000
vt 0.3748 0.0782 0.0000
vt 0.5493 0.1364 0.0000
vt 0.5493 0.0782 0.0000
vt 0.3166 0.1364 0.0000
vt 0.3166 0.0782 0.0000
vt 0.3829 0.7137 0.0000
vt 0.3247 0.7137 0.0000
vt 0.3247 0.6555 0.0000
vt 0.3829 0.6555 0.0000
vt 0.3829 0.7719 0.0000
vt 0.3829 0.8301 0.0000
vt 0.3247 0.8301 0.0000
vt 0.3247 0.7719 0.0000
vt 0.2665 0.7719 0.0000
vt 0.2665 0.7137 0.0000
vt 0.4410 0.7719 0.0000
vt 0.4410 0.7137 0.0000
vt 0.2083 0.7719 0.0000
vt 0.2083 0.7137 0.0000
vt 0.2840 0.5584 0.0000
vt 0.2258 0.5584 0.0000
vt 0.2258 0.5002 0.0000
vt 0.2840 0.5002 0.0000
vt 0.2840 0.6165 0.0000
vt 0.2840 0.6747 0.0000
vt 0.2258 0.6747 0.0000
vt 0.2258 0.6165 0.0000
vt 0.1676 0.6165 0.0000
vt 0.1676 0.5584 0.0000
vt 0.3422 0.6165 0.0000
vt 0.3422 0.5584 0.0000
vt 0.1094 0.6165 0.0000
vt 0.1094 0.5584 0.0000
vt 0.5617 0.2335 0.0000
vt 0.5036 0.2335 0.0000
vt 0.5036 0.1754 0.0000
vt 0.5617 0.1754 0.0000
vt 0.5617 0.2917 0.0000
vt 0.5617 0.3499 0.0000
vt 0.5036 0.3499 0.0000
vt 0.5036 0.2917 0.0000
vt 0.4454 0.2917 0.0000
vt 0.4454 0.2335 0.0000
vt 0.6199 0.2917 0.0000
vt 0.6199 0.2335 0.0000
vt 0.3872 0.2917 0.0000
vt 0.3872 0.2335 0.0000
vt 0.4723 0.3889 0.0000
vt 0.4141 0.3889 0.0000
vt 0.4141 0.3307 0.0000
vt 0.4723 0.3307 0.0000
vt 0.4723 0.4471 0.0000
vt 0.4723 0.5053 0.0000
vt 0.4141 0.5053 0.0000
vt 0.4141 0.4471 0.0000
vt 0.3559 0.4471 0.0000
vt 0.3559 0.3889 0.0000
vt 0.5305 0.4471 0.0000
vt 0.5305 0.3889 0.0000
vt 0.2977 0.4471 0.0000
vt 0.2977 0.3889 0.0000
vt 0.5429 0.5442 0.0000
vt 0.4847 0.5442 0.0000
vt 0.4847 0.4861 0.0000
vt 0.5429 0.4861 0.0000
vt 0.5429 0.6024 0.0000
vt 0.5429 0.6606 0.0000
vt 0.4847 0.6606 0.0000
vt 0.4847 0.6024 0.0000
vt 0.4265 0.6024 0.0000
vt 0.4265 0.5442 0.0000
vt 0.6011 0.6024 0.0000
vt 0.6011 0.5442 0.0000
vt 0.3684 0.6024 0.0000
vt 0.3684 0.5442 0.0000
vt 0.7736 0.2994 0.0000
vt 0.7154 0.2994 0.0000
vt 0.7154 0.2413 0.0000
vt 0.7736 0.2413 0.0000
vt 0.7736 0.3576 0.0000
vt 0.7736 0.4158 0.0000
vt 0.7154 0.4158 0.0000
vt 0.7154 0.3576 0.0000
vt 0.6572 0.3576 0.0000
vt 0.6572 0.2994 0.0000
vt 0.8318 0.3576 0.0000
vt 0.8318 0.2994 0.0000
vt 0.5990 0.3576 0.0000
vt 0.5990 0.2994 0.0000
vt 0.2134 0.4030 0.0000
vt 0.1552 0.4030 0.0000
vt 0.1552 0.3448 0.0000
vt 0.2134 0.3448 0.0000
vt 0.2134 0.4612 0.0000
vt 0.2134 0.5194 0.0000
vt 0.1552 0.5194 0.0000
vt 0.1552 0.4612 0.0000
vt 0.0970 0.4612 0.0000
vt 0.0970 0.4030 0.0000
vt 0.2716 0.4612 0.0000
vt 0.2716 0.4030 0.0000
vt 0.0388 0.4612 0.0000
vt 0.0388 0.4030 0.0000
vt 0.4770 0.8596 0.0000
vt 0.4188 0.8596 0.0000
vt 0.4188 0.8015 0.0000
vt 0.4770 0.8015 0.0000
vt 0.4770 0.9178 0.0000
vt 0.4770 0.9760 0.0000
vt 0.4188 0.9760 0.0000
vt 0.4188 0.9178 0.0000
vt 0.3606 0.9178 0.0000
vt 0.3606 0.8596 0.0000
vt 0.5352 0.9178 0.0000
vt 0.5352 0.8596 0.0000
vt 0.3025 0.9178 0.0000
vt 0.3025 0.8596 0.0000
vt 0.6297 0.6955 0.0000
vt 0.5755 0.6955 0.0000
vt 0.5755 0.6414 0.0000
vt 0.6297 0.6414 0.0000
vt 0.6297 0.7497 0.0000
vt 0.6297 0.8038 0.0000
vt 0.5755 0.8038 0.0000
vt 0.5755 0.7497 0.0000
vt 0.5214 0.7497 0.0000
vt 0.5214 0.6955 0.0000
vt 0.6838 0.7497 0.0000
vt 0.6838 0.6955 0.0000
vt 0.4672 0.7497 0.0000
vt 0.4672 0.6955 0.0000
vt 0.9203 0.9133 0.0000
vt 0.8885 0.9133 0.0000
vt 0.8885 0.8815 0.0000
vt 0.9203 0.8815 0.0000
vt 0.9203 0.9450 0.0000
vt 0.9203 0.9768 0.0000
vt 0.8885 0.9768 0.0000
vt 0.8885 0.9450 0.0000
vt 0.8568 0.9450 0.0000
vt 0.8568 0.9133 0.0000
vt 0.9520 0.9450 0.0000
vt 0.9520 0.9132 0.0000
vt 0.8250 0.9450 0.0000
vt 0.8250 0.9133 0.0000
vt 0.7352 0.8704 0.0000
vt 0.6804 0.8704 0.0000
vt 0.6804 0.8156 0.0000
vt 0.7352 0.8156 0.0000
vt 0.7352 0.9252 0.0000
vt 0.7352 0.9800 0.0000
vt 0.6804 0.9800 0.0000
vt 0.6804 0.9252 0.0000
vt 0.6256 0.9252 0.0000
vt 0.6256 0.8704 0.0000
vt 0.7900 0.9252 0.0000
vt 0.7900 0.8704 0.0000
vt 0.5708 0.9252 0.0000
vt 0.5708 0.8704 0.0000
vt 0.8106 0.7621 0.0000
vt 0.7699 0.7621 0.0000
vt 0.7699 0.7214 0.0000
vt 0.8106 0.7214 0.0000
vt 0.8106 0.8028 0.0000
vt 0.8106 0.8435 0.0000
vt 0.7699 0.8435 0.0000
vt 0.7699 0.8028 0.0000
vt 0.7292 0.8028 0.0000
vt 0.7292 0.7621 0.0000
vt 0.8513 0.8028 0.0000
vt 0.8513 0.7621 0.0000
vt 0.6885 0.8028 0.0000
vt 0.6885 0.7621 0.0000
vt 0.7141 0.4930 0.0000
vt 0.6695 0.4930 0.0000
vt 0.6695 0.4484 0.0000
vt 0.7141 0.4484 0.0000
vt 0.7141 0.5377 0.0000
vt 0.7141 0.5823 0.0000
vt 0.6695 0.5823 0.0000
vt 0.6695 0.5377 0.0000
vt 0.6249 0.5377 0.0000
vt 0.6248 0.4930 0.0000
vt 0.7588 0.5377 0.0000
vt 0.7588 0.4930 0.0000
vt 0.5802 0.5377 0.0000
vt 0.5802 0.4930 0.0000
vt 0.2840 0.2477 0.0000
vt 0.2258 0.2477 0.0000
vt 0.2258 0.1895 0.0000
vt 0.2840 0.1895 0.0000
vt 0.2840 0.3058 0.0000
vt 0.2840 0.3640 0.0000
vt 0.2258 0.3640 0.0000
vt 0.2258 0.3058 0.0000
vt 0.1676 0.3058 0.0000
vt 0.1676 0.2477 0.0000
vt 0.3422 0.3058 0.0000
vt 0.3422 0.2477 0.0000
vt 0.1094 0.3058 0.0000
vt 0.1094 0.2477 0.0000
vt 0.7928 0.6150 0.0000
vt 0.7533 0.6150 0.0000
vt 0.7533 0.5755 0.0000
vt 0.7928 0.5755 0.0000
vt 0.7928 0.6544 0.0000
vt 0.7928 0.6939 0.0000
vt 0.7533 0.6939 0.0000
vt 0.7533 0.6544 0.0000
vt 0.7138 0.6544 0.0000
vt 0.7138 0.6150 0.0000
vt 0.8322 0.6544 0.0000
vt 0.8322 0.6150 0.0000
vt 0.6744 0.6544 0.0000
vt 0.6744 0.6150 0.0000
vt 0.8671 0.4452 0.0000
vt 0.8279 0.4452 0.0000
vt 0.8279 0.4060 0.0000
vt 0.8671 0.4060 0.0000
vt 0.8671 0.4843 0.0000
vt 0.8671 0.5234 0.0000
vt 0.8279 0.5234 0.0000
vt 0.8279 0.4843 0.0000
vt 0.7888 0.4843 0.0000
vt 0.7888 0.4452 0.0000
vt 0.9062 0.4843 0.0000
vt 0.9062 0.4452 0.0000
vt 0.7497 0.4843 0.0000
vt 0.7497 0.4452 0.0000
vt 0.1327 0.6931 0.0000
vt 0.0951 0.6931 0.0000
vt 0.0951 0.6555 0.0000
vt 0.1327 0.6555 0.0000
vt 0.1327 0.7307 0.0000
vt 0.1327 0.7682 0.0000
vt 0.0951 0.7682 0.0000
vt 0.0951 0.7307 0.0000
vt 0.0576 0.7307 0.0000
vt 0.0576 0.6931 0.0000
vt 0.1703 0.7307 0.0000
vt 0.1703 0.6931 0.0000
vt 0.0200 0.7307 0.0000
vt 0.0200 0.6931 0.0000
# 294 texture coords

o P_h_2
g P_h_2
s 2
f 1/1/1 2/2/1 3/3/1 
f 3/3/1 4/4/1 1/1/1 
s 4
f 5/5/2 6/6/2 7/7/2 
f 7/7/2 8/8/2 5/5/2 
s 8
f 8/8/3 7/9/3 3/10/3 
f 3/10/3 2/2/3 8/8/3 
s 16
f 5/5/4 8/8/4 2/2/4 
f 2/2/4 1/1/4 5/5/4 
s 32
f 6/11/5 5/5/5 1/1/5 
f 1/1/5 4/12/5 6/11/5 
s 64
f 7/9/6 6/13/6 4/14/6 
f 4/14/6 3/10/6 7/9/6 
s 2
f 9/15/1 10/16/1 11/17/1 
f 11/17/1 12/18/1 9/15/1 
s 4
f 13/19/2 14/20/2 15/21/2 
f 15/21/2 16/22/7 13/19/2 
s 8
f 16/22/3 15/23/3 11/24/3 
f 11/24/3 10/16/3 16/22/3 
s 16
f 13/19/8 16/22/8 10/16/8 
f 10/16/8 9/15/8 13/19/8 
s 32
f 14/25/9 13/19/9 9/15/9 
f 9/15/9 12/26/9 14/25/9 
s 64
f 15/23/6 14/27/6 12/28/6 
f 12/28/6 11/24/6 15/23/6 
s 2
f 17/29/1 18/30/1 19/31/1 
f 19/31/1 20/32/1 17/29/1 
s 4
f 21/33/2 22/34/2 23/35/2 
f 23/35/2 24/36/2 21/33/2 
s 8
f 24/36/3 23/37/3 19/38/3 
f 19/38/3 18/30/3 24/36/3 
s 16
f 21/33/8 24/36/8 18/30/8 
f 18/30/8 17/29/8 21/33/8 
s 32
f 22/39/5 21/33/5 17/29/5 
f 17/29/5 20/40/5 22/39/5 
s 64
f 23/37/6 22/41/6 20/42/6 
f 20/42/6 19/38/6 23/37/6 
s 2
f 25/43/1 26/44/1 27/45/1 
f 27/45/1 28/46/1 25/43/1 
s 4
f 29/47/2 30/48/2 31/49/2 
f 31/49/2 32/50/2 29/47/2 
s 8
f 32/50/3 31/51/3 27/52/3 
f 27/52/3 26/44/3 32/50/3 
s 16
f 29/47/8 32/50/8 26/44/8 
f 26/44/8 25/43/8 29/47/8 
s 32
f 30/53/5 29/47/5 25/43/5 
f 25/43/5 28/54/5 30/53/5 
s 64
f 31/51/6 30/55/6 28/56/6 
f 28/56/6 27/52/6 31/51/6 
s 2
f 33/57/1 34/58/1 35/59/1 
f 35/59/1 36/60/1 33/57/1 
s 4
f 37/61/2 38/62/2 39/63/2 
f 39/63/2 40/64/2 37/61/2 
s 8
f 40/64/3 39/65/3 35/66/3 
f 35/66/3 34/58/3 40/64/3 
s 16
f 37/61/8 40/64/8 34/58/8 
f 34/58/8 33/57/8 37/61/8 
s 32
f 38/67/5 37/61/5 33/57/5 
f 33/57/5 36/68/9 38/67/5 
s 64
f 39/65/6 38/69/6 36/70/6 
f 36/70/6 35/66/6 39/65/6 
s 2
f 41/71/1 42/72/1 43/73/1 
f 43/73/1 44/74/1 41/71/1 
s 4
f 45/75/2 46/76/2 47/77/2 
f 47/77/2 48/78/2 45/75/2 
s 8
f 48/78/10 47/79/10 43/80/10 
f 43/80/10 42/72/10 48/78/10 
s 16
f 45/75/4 48/78/4 42/72/4 
f 42/72/4 41/71/4 45/75/4 
s 32
f 46/81/9 45/75/9 41/71/9 
f 41/71/9 44/82/9 46/81/9 
s 64
f 47/79/6 46/83/6 44/84/6 
f 44/84/6 43/80/6 47/79/6 
s 2
f 49/85/11 50/86/11 51/87/11 
f 51/87/11 52/88/1 49/85/11 
s 4
f 53/89/2 54/90/2 55/91/2 
f 55/91/2 56/92/7 53/89/2 
s 8
f 56/92/3 55/93/3 51/94/3 
f 51/94/3 50/86/3 56/92/3 
s 16
f 53/89/8 56/92/8 50/86/8 
f 50/86/8 49/85/8 53/89/8 
s 32
f 54/95/5 53/89/9 49/85/5 
f 49/85/5 52/96/5 54/95/5 
s 64
f 55/93/6 54/97/6 52/98/6 
f 52/98/6 51/94/6 55/93/6 
s 2
f 57/99/1 58/100/1 59/101/1 
f 59/101/1 60/102/1 57/99/1 
s 4
f 61/103/2 62/104/2 63/105/2 
f 63/105/2 64/106/2 61/103/2 
s 8
f 64/106/3 63/107/3 59/108/3 
f 59/108/3 58/100/3 64/106/3 
s 16
f 61/103/4 64/106/4 58/100/4 
f 58/100/4 57/99/4 61/103/4 
s 32
f 62/109/9 61/103/9 57/99/9 
f 57/99/9 60/110/9 62/109/9 
s 64
f 63/107/6 62/111/6 60/112/6 
f 60/112/6 59/108/6 63/107/6 
s 2
f 65/113/1 66/114/1 67/115/1 
f 67/115/1 68/116/1 65/113/1 
s 4
f 69/117/2 70/118/2 71/119/2 
f 71/119/2 72/120/2 69/117/2 
s 8
f 72/120/3 71/121/3 67/122/3 
f 67/122/3 66/114/3 72/120/3 
s 16
f 69/117/4 72/120/4 66/114/4 
f 66/114/4 65/113/4 69/117/4 
s 32
f 70/123/5 69/117/5 65/113/5 
f 65/113/5 68/124/5 70/123/5 
s 64
f 71/121/6 70/125/6 68/126/6 
f 68/126/6 67/122/6 71/121/6 
s 2
f 73/127/1 74/128/1 75/129/1 
f 75/129/1 76/130/1 73/127/1 
s 4
f 77/131/2 78/132/2 79/133/2 
f 79/133/2 80/134/2 77/131/2 
s 8
f 80/134/3 79/135/3 75/136/3 
f 75/136/3 74/128/3 80/134/3 
s 16
f 77/131/4 80/134/4 74/128/4 
f 74/128/4 73/127/4 77/131/4 
s 32
f 78/137/5 77/131/9 73/127/5 
f 73/127/5 76/138/5 78/137/5 
s 64
f 79/135/6 78/139/6 76/140/6 
f 76/140/6 75/136/6 79/135/6 
s 2
f 81/141/1 82/142/11 83/143/1 
f 83/143/1 84/144/1 81/141/1 
s 4
f 85/145/2 86/146/2 87/147/2 
f 87/147/2 88/148/7 85/145/2 
s 8
f 88/148/3 87/149/3 83/150/3 
f 83/150/3 82/142/3 88/148/3 
s 16
f 85/145/4 88/148/4 82/142/4 
f 82/142/4 81/141/4 85/145/4 
s 32
f 86/151/5 85/145/5 81/141/5 
f 81/141/5 84/152/5 86/151/5 
s 64
f 87/149/6 86/153/6 84/154/6 
f 84/154/6 83/150/6 87/149/6 
s 2
f 89/155/1 90/156/1 91/157/1 
f 91/157/1 92/158/1 89/155/1 
s 4
f 93/159/12 94/160/12 95/161/2 
f 95/161/2 96/162/7 93/159/12 
s 8
f 96/162/10 95/163/3 91/164/10 
f 91/164/10 90/156/10 96/162/10 
s 16
f 93/159/8 96/162/8 90/156/8 
f 90/156/8 89/155/8 93/159/8 
s 32
f 94/165/5 93/159/5 89/155/5 
f 89/155/5 92/166/5 94/165/5 
s 64
f 95/163/6 94/167/6 92/168/6 
f 92/168/6 91/164/6 95/163/6 
s 2
f 97/169/1 98/170/1 99/171/1 
f 99/171/1 100/172/1 97/169/1 
s 4
f 101/173/2 102/174/2 103/175/2 
f 103/175/2 104/176/2 101/173/2 
s 8
f 104/176/3 103/177/3 99/178/3 
f 99/178/3 98/170/3 104/176/3 
s 16
f 101/173/8 104/176/8 98/170/8 
f 98/170/8 97/169/8 101/173/8 
s 32
f 102/179/5 101/173/5 97/169/5 
f 97/169/5 100/180/5 102/179/5 
s 64
f 103/177/6 102/181/6 100/182/6 
f 100/182/6 99/178/6 103/177/6 
s 2
f 105/183/1 106/184/1 107/185/1 
f 107/185/1 108/186/1 105/183/1 
s 4
f 109/187/2 110/188/2 111/189/2 
f 111/189/2 112/190/2 109/187/2 
s 8
f 112/190/3 111/191/3 107/192/3 
f 107/192/3 106/184/3 112/190/3 
s 16
f 109/187/4 112/190/4 106/184/4 
f 106/184/4 105/183/4 109/187/4 
s 32
f 110/193/5 109/187/5 105/183/5 
f 105/183/5 108/194/5 110/193/5 
s 64
f 111/191/6 110/195/6 108/196/6 
f 108/196/6 107/192/6 111/191/6 
s 2
f 113/197/1 114/198/1 115/199/1 
f 115/199/1 116/200/1 113/197/1 
s 4
f 117/201/2 118/202/2 119/203/2 
f 119/203/2 120/204/2 117/201/2 
s 8
f 120/204/3 119/205/3 115/206/3 
f 115/206/3 114/198/3 120/204/3 
s 16
f 117/201/8 120/204/4 114/198/8 
f 114/198/8 113/197/8 117/201/8 
s 32
f 118/207/5 117/201/5 113/197/5 
f 113/197/5 116/208/5 118/207/5 
s 64
f 119/205/6 118/209/6 116/210/6 
f 116/210/6 115/206/6 119/205/6 
s 2
f 121/211/1 122/212/1 123/213/1 
f 123/213/1 124/214/1 121/211/1 
s 4
f 125/215/2 126/216/2 127/217/2 
f 127/217/2 128/218/2 125/215/2 
s 8
f 128/218/3 127/219/3 123/220/3 
f 123/220/3 122/212/3 128/218/3 
s 16
f 125/215/8 128/218/8 122/212/8 
f 122/212/8 121/211/8 125/215/8 
s 32
f 126/221/5 125/215/5 121/211/5 
f 121/211/5 124/222/9 126/221/5 
s 64
f 127/219/6 126/223/6 124/224/6 
f 124/224/6 123/220/6 127/219/6 
s 2
f 129/225/1 130/226/1 131/227/1 
f 131/227/1 132/228/1 129/225/1 
s 4
f 133/229/7 134/230/7 135/231/7 
f 135/231/7 136/232/13 133/229/7 
s 8
f 136/232/3 135/233/3 131/234/3 
f 131/234/3 130/226/3 136/232/3 
s 16
f 133/229/8 136/232/8 130/226/8 
f 130/226/8 129/225/4 133/229/8 
s 32
f 134/235/9 133/229/9 129/225/9 
f 129/225/9 132/236/9 134/235/9 
s 64
f 135/233/6 134/237/6 132/238/6 
f 132/238/6 131/234/6 135/233/6 
s 2
f 137/239/1 138/240/1 139/241/1 
f 139/241/1 140/242/1 137/239/1 
s 4
f 141/243/2 142/244/2 143/245/2 
f 143/245/2 144/246/2 141/243/2 
s 8
f 144/246/3 143/247/3 139/248/3 
f 139/248/3 138/240/3 144/246/3 
s 16
f 141/243/8 144/246/4 138/240/8 
f 138/240/8 137/239/8 141/243/8 
s 32
f 142/249/9 141/243/9 137/239/9 
f 137/239/9 140/250/9 142/249/9 
s 64
f 143/247/6 142/251/6 140/252/6 
f 140/252/6 139/248/6 143/247/6 
s 2
f 145/253/1 146/254/1 147/255/1 
f 147/255/1 148/256/1 145/253/1 
s 4
f 149/257/2 150/258/2 151/259/2 
f 151/259/2 152/260/2 149/257/2 
s 8
f 152/260/3 151/261/3 147/262/3 
f 147/262/3 146/254/3 152/260/3 
s 16
f 149/257/4 152/260/4 146/254/4 
f 146/254/4 145/253/4 149/257/4 
s 32
f 150/263/5 149/257/5 145/253/5 
f 145/253/5 148/264/5 150/263/5 
s 64
f 151/261/6 150/265/6 148/266/6 
f 148/266/6 147/262/6 151/261/6 
s 2
f 153/267/1 154/268/1 155/269/1 
f 155/269/1 156/270/1 153/267/1 
s 4
f 157/271/2 158/272/2 159/273/2 
f 159/273/2 160/274/2 157/271/2 
s 8
f 160/274/3 159/275/3 155/276/3 
f 155/276/3 154/268/3 160/274/3 
s 16
f 157/271/8 160/274/4 154/268/8 
f 154/268/8 153/267/8 157/271/8 
s 32
f 158/277/5 157/271/5 153/267/5 
f 153/267/5 156/278/5 158/277/5 
s 64
f 159/275/6 158/279/6 156/280/6 
f 156/280/6 155/276/6 159/275/6 
s 2
f 161/281/1 162/282/1 163/283/1 
f 163/283/1 164/284/1 161/281/1 
s 4
f 165/285/2 166/286/2 167/287/2 
f 167/287/2 168/288/2 165/285/2 
s 8
f 168/288/3 167/289/3 163/290/3 
f 163/290/3 162/282/3 168/288/3 
s 16
f 165/285/4 168/288/4 162/282/4 
f 162/282/4 161/281/4 165/285/4 
s 32
f 166/291/5 165/285/5 161/281/5 
f 161/281/5 164/292/5 166/291/5 
s 64
f 167/289/6 166/293/6 164/294/6 
f 164/294/6 163/290/6 167/289/6 
# 252 faces

