# 3ds Max Wavefront OBJ Exporter v0.97b - (c)2007 guruware
# File Created: 03.06.2021 20:35:46

#
# object Collider
#

v  -3.9249 4.1298 -0.9325
v  -2.0963 4.1298 -0.9325
v  -3.4661 0.0618 -3.0361
v  -6.6869 0.0618 -2.8384
v  -3.0669 0.0618 1.0849
v  -2.0963 4.1298 0.8249
v  -2.2955 8.9179 -0.4967
v  -1.2222 8.9179 -0.4967
v  -0.0000 4.1298 -0.9308
v  -0.0000 0.0618 -3.0802
v  -0.0000 -5.4174 2.3723
v  -0.0000 -2.6684 3.0359
v  -2.8570 -3.0884 0.8292
v  -2.1246 -6.2386 0.3473
v  -1.2222 8.9179 0.5511
v  -4.3507 -6.2386 -2.6495
v  -5.8964 -3.0884 -2.9235
v  -2.8278 -3.0884 -2.9735
v  -2.1895 -6.2386 -2.7729
v  -0.0000 8.9179 -0.4986
v  -1.8062 -8.3385 -2.2498
v  -0.1762 -8.6157 -1.0948
v  -0.2443 -8.8911 -2.2538
v  -0.0000 -6.2386 -2.8597
v  -0.0000 -8.8911 -2.2594
v  -0.0000 -8.6157 -0.9908
v  -0.0000 -3.0884 -2.9735
v  -0.0000 8.9179 0.5718
v  -0.0000 4.1298 1.3918
v  -0.0000 0.0618 2.5546
v  3.9249 4.1298 -0.9325
v  6.6869 0.0618 -2.8384
v  3.4661 0.0618 -3.0361
v  2.0963 4.1298 -0.9325
v  2.0963 4.1298 0.8249
v  3.0669 0.0618 1.0849
v  2.2955 8.9179 -0.4967
v  1.2222 8.9179 -0.4967
v  2.1246 -6.2386 0.3473
v  2.8570 -3.0884 0.8292
v  1.2222 8.9179 0.5511
v  4.3507 -6.2386 -2.6495
v  2.1895 -6.2386 -2.7729
v  2.8278 -3.0884 -2.9735
v  5.8964 -3.0884 -2.9235
v  0.1762 -8.6157 -1.0948
v  1.8062 -8.3385 -2.2498
v  0.2443 -8.8911 -2.2538
# 48 vertices

vn -0.0108 0.3278 -0.9447
vn -0.0010 0.2821 -0.9594
vn -0.0297 0.2287 -0.9731
vn -0.0599 0.2123 -0.9754
vn -0.7291 -0.0496 0.6826
vn -0.6310 0.0615 0.7733
vn -0.5072 0.1755 0.8438
vn -0.6861 0.1442 0.7131
vn -0.0000 0.0907 -0.9959
vn -0.0005 0.0903 -0.9959
vn -0.0000 0.2843 -0.9587
vn 0.0000 0.2248 -0.9744
vn -0.0000 -0.2762 0.9611
vn -0.0000 -0.0824 0.9966
vn -0.6912 -0.1837 0.6989
vn -0.7032 -0.2645 0.6599
vn 0.0000 1.0000 0.0000
vn -0.0387 -0.0837 -0.9957
vn -0.0302 -0.0397 -0.9988
vn -0.0142 -0.0514 -0.9986
vn -0.0370 -0.0601 -0.9975
vn 0.0000 0.0899 -0.9960
vn -0.3786 0.1699 0.9098
vn -0.6884 0.1701 0.7051
vn -0.6089 -0.6517 0.4523
vn -0.4843 -0.7084 0.5134
vn -0.0555 -0.2308 -0.9714
vn -0.1152 -0.3187 -0.9408
vn -0.0221 -0.2207 -0.9751
vn -0.0386 -0.2191 -0.9749
vn -0.3235 -0.9161 0.2367
vn 0.0000 -0.9734 0.2291
vn 0.0000 -0.9772 0.2122
vn -0.1121 -0.9707 0.2126
vn 0.0052 -0.9730 0.2309
vn -0.7411 -0.2274 0.6317
vn 0.0000 -0.0434 -0.9991
vn -0.7523 -0.2942 0.5895
vn 0.0000 -0.0361 -0.9993
vn -0.3706 -0.6846 0.6277
vn -0.3525 -0.6781 0.6449
vn -0.0000 0.1988 0.9800
vn 0.0000 0.1688 0.9857
vn -0.0000 0.1902 0.9817
vn 0.0108 0.3278 -0.9447
vn 0.0599 0.2123 -0.9754
vn 0.0297 0.2287 -0.9731
vn 0.0010 0.2821 -0.9594
vn 0.7291 -0.0496 0.6826
vn 0.6861 0.1442 0.7131
vn 0.5072 0.1755 0.8438
vn 0.6310 0.0615 0.7733
vn 0.0000 0.0907 -0.9959
vn 0.0005 0.0903 -0.9959
vn 0.7032 -0.2645 0.6599
vn 0.6912 -0.1837 0.6989
vn 0.0387 -0.0837 -0.9957
vn 0.0370 -0.0601 -0.9975
vn 0.0142 -0.0514 -0.9986
vn 0.0302 -0.0397 -0.9988
vn 0.3786 0.1699 0.9098
vn 0.6884 0.1701 0.7051
vn 0.4843 -0.7084 0.5134
vn 0.6089 -0.6517 0.4523
vn 0.1152 -0.3187 -0.9408
vn 0.0555 -0.2308 -0.9714
vn 0.0386 -0.2191 -0.9749
vn 0.0221 -0.2207 -0.9751
vn 0.3235 -0.9161 0.2367
vn -0.0052 -0.9730 0.2309
vn 0.1121 -0.9707 0.2126
vn 0.7411 -0.2274 0.6317
vn 0.7523 -0.2942 0.5895
vn 0.3525 -0.6781 0.6449
vn 0.3706 -0.6846 0.6277
# 75 vertex normals

vt 1.0000 0.7423 0.0000
vt 0.7500 0.7423 0.0000
vt 0.7500 0.4499 0.0000
vt 1.0000 0.4499 0.0000
vt 0.5501 0.0000 0.0000
vt 0.5501 0.5000 0.0000
vt 0.2577 0.5000 0.0000
vt 0.2577 0.0000 0.0000
vt 1.0000 1.0000 0.0000
vt 0.7500 1.0000 0.0000
vt 0.5151 0.7423 0.0000
vt 0.5094 0.4499 0.0000
vt 0.8761 0.9566 0.0000
vt 0.7131 0.9670 0.0000
vt 0.7131 0.5000 0.0000
vt 0.8761 0.5000 0.0000
vt 0.7500 0.0000 0.0000
vt 1.0000 0.0000 0.0000
vt 0.7500 0.5000 0.0000
vt 1.0000 0.1239 0.0000
vt 1.0000 0.2869 0.0000
vt 0.7500 0.2869 0.0000
vt 0.7500 0.1239 0.0000
vt 0.5249 1.0000 0.0000
vt 0.0000 0.5000 0.0000
vt 0.0000 0.0000 0.0000
vt 0.8761 0.0000 0.0000
vt 0.5145 0.1239 0.0000
vt 0.6315 0.1239 0.0000
vt 0.4606 0.5474 0.0000
vt 0.6591 0.6181 0.0000
vt 0.6000 0.5000 0.0000
vt 0.2000 0.5000 0.0000
vt 0.7131 0.0000 0.0000
vt 0.5114 0.2869 0.0000
vt 0.5249 0.0000 0.0000
vt 0.5249 0.9503 0.0000
vt 0.8761 0.6969 0.0000
vt 0.2577 0.9698 0.0000
vt 0.0000 0.9503 0.0000
vt 0.5501 0.9691 0.0000
# 41 texture coords

o Collider
g Collider
s 2
f 1/1/1 2/2/2 3/3/3 
f 3/3/3 4/4/4 1/1/1 
s 64
f 4/5/5 5/6/6 6/7/7 
f 6/7/7 1/8/8 4/5/5 
s 2
f 7/9/9 8/10/10 2/2/2 
f 2/2/2 1/1/1 7/9/9 
f 2/2/2 9/11/11 10/12/12 
f 10/12/12 3/3/3 2/2/2 
s 64
f 11/13/13 12/14/14 13/15/15 
f 13/15/15 14/16/16 11/13/13 
s 32
f 8/17/17 7/18/17 15/19/17 
s 2
f 16/20/18 17/21/19 18/22/20 
f 18/22/20 19/23/21 16/20/18 
f 8/10/10 20/24/22 9/11/11 
f 9/11/11 2/2/2 8/10/10 
s 64
f 15/25/23 7/26/24 1/8/8 
f 1/8/8 6/7/7 15/25/23 
s off
f 14/16/25 16/27/25 21/27/25 
f 21/27/26 22/16/26 14/16/26 
f 16/20/27 19/23/27 23/23/27 
f 23/23/28 21/20/28 16/20/28 
f 24/28/29 25/29/29 23/23/29 
f 23/23/30 19/23/30 24/28/30 
f 22/16/31 21/27/31 23/23/31 
s 1
f 25/30/32 26/31/33 22/32/34 
f 22/32/34 23/33/35 25/30/32 
s 64
f 17/34/36 13/15/15 5/6/6 
f 5/6/6 4/5/5 17/34/36 
s 2
f 18/22/20 3/3/3 10/12/12 
f 10/12/12 27/35/37 18/22/20 
f 17/21/19 4/4/4 3/3/3 
f 3/3/3 18/22/20 17/21/19 
s 64
f 16/27/38 14/16/16 13/15/15 
f 13/15/15 17/34/36 16/27/38 
s 32
f 20/36/17 8/17/17 15/19/17 
f 15/19/17 28/37/17 20/36/17 
s 2
f 19/23/21 18/22/20 27/35/37 
f 27/35/37 24/28/39 19/23/21 
s off
f 14/16/40 22/16/40 26/38/40 
f 26/38/41 11/13/41 14/16/41 
s 64
f 15/25/23 6/7/7 29/39/42 
f 29/39/42 28/40/43 15/25/23 
f 6/7/7 5/6/6 30/41/44 
f 30/41/44 29/39/42 6/7/7 
f 5/6/6 13/15/15 12/14/14 
f 12/14/14 30/41/44 5/6/6 
s 2
f 31/1/45 32/4/46 33/3/47 
f 33/3/47 34/2/48 31/1/45 
s 64
f 32/5/49 31/8/50 35/7/51 
f 35/7/51 36/6/52 32/5/49 
s 2
f 37/9/53 31/1/45 34/2/48 
f 34/2/48 38/10/54 37/9/53 
f 34/2/48 33/3/47 10/12/12 
f 10/12/12 9/11/11 34/2/48 
s 64
f 11/13/13 39/16/55 40/15/56 
f 40/15/56 12/14/14 11/13/13 
s 32
f 38/17/17 41/19/17 37/18/17 
s 2
f 42/20/57 43/23/58 44/22/59 
f 44/22/59 45/21/60 42/20/57 
f 38/10/54 34/2/48 9/11/11 
f 9/11/11 20/24/22 38/10/54 
s 64
f 41/25/61 35/7/51 31/8/50 
f 31/8/50 37/26/62 41/25/61 
s off
f 39/16/63 46/16/63 47/27/63 
f 47/27/64 42/27/64 39/16/64 
f 42/20/65 47/20/65 48/23/65 
f 48/23/66 43/23/66 42/20/66 
f 24/28/67 43/23/67 48/23/67 
f 48/23/68 25/29/68 24/28/68 
f 46/16/69 48/23/69 47/27/69 
s 1
f 25/30/32 48/33/70 46/32/71 
f 46/32/71 26/31/33 25/30/32 
s 64
f 45/34/72 32/5/49 36/6/52 
f 36/6/52 40/15/56 45/34/72 
s 2
f 44/22/59 27/35/37 10/12/12 
f 10/12/12 33/3/47 44/22/59 
f 45/21/60 44/22/59 33/3/47 
f 33/3/47 32/4/46 45/21/60 
s 64
f 42/27/73 45/34/72 40/15/56 
f 40/15/56 39/16/55 42/27/73 
s 32
f 20/36/17 28/37/17 41/19/17 
f 41/19/17 38/17/17 20/36/17 
s 2
f 43/23/58 24/28/39 27/35/37 
f 27/35/37 44/22/59 43/23/58 
s off
f 39/16/74 11/13/74 26/38/74 
f 26/38/75 46/16/75 39/16/75 
s 64
f 41/25/61 28/40/43 29/39/42 
f 29/39/42 35/7/51 41/25/61 
f 35/7/51 29/39/42 30/41/44 
f 30/41/44 36/6/52 35/7/51 
f 36/6/52 30/41/44 12/14/14 
f 12/14/14 40/15/56 36/6/52 
# 92 faces

