# 3ds Max Wavefront OBJ Exporter v0.97b - (c)2007 guruware
# File Created: 31.05.2021 02:01:53

#
# object Hexa_Platform_Collider
#

v  0.0000 0.0000 -0.0000
v  0.5767 0.0000 -0.9989
v  1.1534 0.0000 -0.0000
v  -0.5767 0.0000 -0.9989
v  -1.1534 0.0000 0.0000
v  -0.5767 0.0000 0.9989
v  0.5767 0.0000 0.9989
v  0.5767 0.4660 -0.9989
v  1.1534 0.4660 -0.0000
v  -0.5767 0.4660 -0.9989
v  -1.1534 0.4660 0.0000
v  -0.5767 0.4660 0.9989
v  0.5767 0.4660 0.9989
v  0.0000 0.4660 -0.0000
# 14 vertices

vn 0.0000 -1.0000 -0.0000
vn 0.8660 0.0000 -0.5000
vn -0.0000 0.0000 -1.0000
vn -0.8660 0.0000 -0.5000
vn -0.8660 0.0000 0.5000
vn 0.0000 0.0000 1.0000
vn 0.8660 0.0000 0.5000
vn 0.0000 1.0000 -0.0000
# 8 vertex normals

vt 0.5000 0.0000 0.0000
vt 0.9167 0.0000 1.0000
vt 0.7500 0.0000 1.0000
vt 0.0833 0.0000 1.0000
vt -0.0833 0.0000 1.0000
vt 0.2500 0.0000 1.0000
vt 0.4167 0.0000 1.0000
vt 0.5833 0.0000 1.0000
vt 0.9167 1.0000 1.0000
vt 0.7500 1.0000 1.0000
vt 0.0833 1.0000 1.0000
vt -0.0833 1.0000 1.0000
vt 0.2500 1.0000 1.0000
vt 0.4167 1.0000 1.0000
vt 0.5833 1.0000 1.0000
vt 0.5000 1.0000 0.0000
# 16 texture coords

o Hexa_Platform_Collider
g Hexa_Platform_Collider
s 1
f 1/1/1 2/2/1 3/3/1 
f 1/1/1 4/4/1 2/5/1 
f 1/1/1 5/6/1 4/4/1 
f 1/1/1 6/7/1 5/6/1 
f 1/1/1 7/8/1 6/7/1 
f 1/1/1 3/3/1 7/8/1 
s off
f 3/3/2 8/9/2 9/10/2 
f 3/3/2 2/2/2 8/9/2 
f 2/5/3 10/11/3 8/12/3 
f 2/5/3 4/4/3 10/11/3 
f 4/4/4 11/13/4 10/11/4 
f 4/4/4 5/6/4 11/13/4 
f 5/6/5 12/14/5 11/13/5 
f 5/6/5 6/7/5 12/14/5 
f 6/7/6 13/15/6 12/14/6 
f 6/7/6 7/8/6 13/15/6 
f 7/8/7 9/10/7 13/15/7 
f 7/8/7 3/3/7 9/10/7 
s 1
f 14/16/8 9/10/8 8/9/8 
f 14/16/8 8/12/8 10/11/8 
f 14/16/8 10/11/8 11/13/8 
f 14/16/8 11/13/8 12/14/8 
f 14/16/8 12/14/8 13/15/8 
f 14/16/8 13/15/8 9/10/8 
# 24 faces

