# 3ds Max Wavefront OBJ Exporter v0.97b - (c)2007 guruware
# File Created: 27.05.2021 16:56:12

#
# object Collider_ship
#

v  -3.8504 -0.9148 -4.0514
v  -2.0565 -0.9148 -4.0514
v  -3.4003 -2.9785 -0.0606
v  -6.5599 -2.7845 -0.0606
v  -3.0086 1.0644 -0.0606
v  -2.0565 0.8093 -4.0514
v  -2.2519 -0.4872 -8.7486
v  -1.1990 -0.4872 -8.7486
v  -0.0000 -0.9131 -4.0514
v  -0.0000 -3.0217 -0.0606
v  -0.0000 2.3273 5.3145
v  -0.0000 2.9783 2.6178
v  -2.8028 0.8135 3.0298
v  -2.0843 0.3407 6.1202
v  -1.1990 0.5406 -8.7486
v  -4.2681 -2.5992 6.1202
v  -5.7845 -2.8680 3.0298
v  -2.7741 -2.9170 3.0298
v  -2.1479 -2.7203 6.1202
v  -0.0000 -0.4891 -8.7486
v  -1.7719 -2.2071 8.1802
v  -0.1728 -0.8149 8.4522
v  -0.2397 -2.2110 8.7224
v  -0.0000 -2.8054 6.1202
v  -0.0000 -2.2165 8.7224
v  -0.0000 -0.8149 8.4522
v  -0.0000 -2.9170 3.0298
v  -0.0000 0.5610 -8.7486
v  -0.0000 1.3654 -4.0514
v  -0.0000 2.5061 -0.0606
v  3.8504 -0.9148 -4.0514
v  6.5599 -2.7845 -0.0606
v  3.4003 -2.9785 -0.0606
v  2.0565 -0.9148 -4.0514
v  2.0565 0.8093 -4.0514
v  3.0087 1.0644 -0.0606
v  2.2519 -0.4872 -8.7486
v  1.1990 -0.4872 -8.7486
v  2.0843 0.3407 6.1202
v  2.8028 0.8135 3.0298
v  1.1990 0.5406 -8.7486
v  4.2681 -2.5992 6.1202
v  2.1479 -2.7203 6.1202
v  2.7741 -2.9170 3.0298
v  5.7845 -2.8680 3.0298
v  0.1728 -0.8149 8.4522
v  1.7719 -2.2071 8.1802
v  0.2397 -2.2110 8.7224
# 48 vertices

vn -0.0108 -0.9447 -0.3278
vn -0.0010 -0.9594 -0.2821
vn -0.0297 -0.9731 -0.2287
vn -0.0599 -0.9754 -0.2123
vn -0.7291 0.6826 0.0496
vn -0.6310 0.7733 -0.0615
vn -0.5072 0.8438 -0.1755
vn -0.6861 0.7131 -0.1442
vn -0.0000 -0.9959 -0.0907
vn -0.0005 -0.9959 -0.0903
vn -0.0000 -0.9587 -0.2843
vn 0.0000 -0.9744 -0.2248
vn -0.0000 0.9611 0.2762
vn -0.0000 0.9966 0.0824
vn -0.6912 0.6989 0.1837
vn -0.7032 0.6599 0.2645
vn 0.0000 0.0000 -1.0000
vn -0.0387 -0.9957 0.0837
vn -0.0302 -0.9988 0.0397
vn -0.0142 -0.9986 0.0514
vn -0.0370 -0.9975 0.0601
vn 0.0000 -0.9960 -0.0899
vn -0.3786 0.9098 -0.1699
vn -0.6884 0.7051 -0.1701
vn -0.6089 0.4523 0.6517
vn -0.5411 0.4877 0.6852
vn -0.0555 -0.9714 0.2308
vn -0.1152 -0.9408 0.3187
vn -0.0221 -0.9751 0.2207
vn -0.0386 -0.9749 0.2191
vn -0.3267 0.1946 0.9249
vn 0.0000 0.1898 0.9818
vn 0.0000 0.1893 0.9819
vn 0.0004 0.1893 0.9819
vn 0.0043 0.1898 0.9818
vn -0.7411 0.6317 0.2274
vn 0.0000 -0.9991 0.0434
vn -0.7523 0.5895 0.2942
vn 0.0000 -0.9993 0.0361
vn -0.0000 0.8960 0.4440
vn -0.3714 0.6561 0.6570
vn -0.0000 0.9800 -0.1988
vn 0.0000 0.9857 -0.1688
vn -0.0000 0.9817 -0.1902
vn 0.0108 -0.9447 -0.3278
vn 0.0599 -0.9754 -0.2123
vn 0.0297 -0.9731 -0.2287
vn 0.0010 -0.9594 -0.2821
vn 0.7291 0.6826 0.0496
vn 0.6861 0.7131 -0.1442
vn 0.5072 0.8438 -0.1755
vn 0.6310 0.7733 -0.0615
vn 0.0000 -0.9959 -0.0907
vn 0.0005 -0.9959 -0.0903
vn 0.7032 0.6599 0.2645
vn 0.6912 0.6989 0.1837
vn 0.0387 -0.9957 0.0837
vn 0.0370 -0.9975 0.0601
vn 0.0142 -0.9986 0.0514
vn 0.0302 -0.9988 0.0397
vn 0.3786 0.9098 -0.1699
vn 0.6884 0.7051 -0.1701
vn 0.5411 0.4877 0.6852
vn 0.6089 0.4523 0.6517
vn 0.1152 -0.9408 0.3187
vn 0.0555 -0.9714 0.2308
vn 0.0386 -0.9749 0.2191
vn 0.0221 -0.9751 0.2207
vn 0.3267 0.1946 0.9249
vn -0.0043 0.1898 0.9818
vn -0.0004 0.1893 0.9819
vn 0.7411 0.6317 0.2274
vn 0.7523 0.5895 0.2942
vn 0.3714 0.6561 0.6570
vn 0.0000 0.8960 0.4440
# 75 vertex normals

vt 1.0000 0.7423 0.0000
vt 0.7500 0.7423 0.0000
vt 0.7500 0.4499 0.0000
vt 1.0000 0.4499 0.0000
vt 0.5501 0.0000 0.0000
vt 0.5501 0.5000 0.0000
vt 0.2577 0.5000 0.0000
vt 0.2577 0.0000 0.0000
vt 1.0000 1.0000 0.0000
vt 0.7500 1.0000 0.0000
vt 0.5151 0.7423 0.0000
vt 0.5094 0.4499 0.0000
vt 0.8761 0.9566 0.0000
vt 0.7131 0.9670 0.0000
vt 0.7131 0.5000 0.0000
vt 0.8761 0.5000 0.0000
vt 0.7500 0.0000 0.0000
vt 1.0000 0.0000 0.0000
vt 0.7500 0.5000 0.0000
vt 1.0000 0.1239 0.0000
vt 1.0000 0.2869 0.0000
vt 0.7500 0.2869 0.0000
vt 0.7500 0.1239 0.0000
vt 0.5249 1.0000 0.0000
vt 0.0000 0.5000 0.0000
vt 0.0000 0.0000 0.0000
vt 0.8761 0.0000 0.0000
vt 0.5145 0.1239 0.0000
vt 0.6315 0.1239 0.0000
vt 0.4606 0.5474 0.0000
vt 0.6591 0.6181 0.0000
vt 0.6000 0.5000 0.0000
vt 0.2000 0.5000 0.0000
vt 0.7131 0.0000 0.0000
vt 0.5114 0.2869 0.0000
vt 0.5249 0.0000 0.0000
vt 0.5249 0.9503 0.0000
vt 0.8761 0.6969 0.0000
vt 0.2577 0.9698 0.0000
vt 0.0000 0.9503 0.0000
vt 0.5501 0.9691 0.0000
# 41 texture coords

o Collider_ship
g Collider_ship
s 2
f 1/1/1 2/2/2 3/3/3 
f 3/3/3 4/4/4 1/1/1 
s 64
f 4/5/5 5/6/6 6/7/7 
f 6/7/7 1/8/8 4/5/5 
s 2
f 7/9/9 8/10/10 2/2/2 
f 2/2/2 1/1/1 7/9/9 
f 2/2/2 9/11/11 10/12/12 
f 10/12/12 3/3/3 2/2/2 
s 64
f 11/13/13 12/14/14 13/15/15 
f 13/15/15 14/16/16 11/13/13 
s 32
f 8/17/17 7/18/17 15/19/17 
s 2
f 16/20/18 17/21/19 18/22/20 
f 18/22/20 19/23/21 16/20/18 
f 8/10/10 20/24/22 9/11/11 
f 9/11/11 2/2/2 8/10/10 
s 64
f 15/25/23 7/26/24 1/8/8 
f 1/8/8 6/7/7 15/25/23 
s off
f 14/16/25 16/27/25 21/27/25 
f 21/27/26 22/16/26 14/16/26 
f 16/20/27 19/23/27 23/23/27 
f 23/23/28 21/20/28 16/20/28 
f 24/28/29 25/29/29 23/23/29 
f 23/23/30 19/23/30 24/28/30 
f 22/16/31 21/27/31 23/23/31 
s 1
f 25/30/32 26/31/33 22/32/34 
f 22/32/34 23/33/35 25/30/32 
s 64
f 17/34/36 13/15/15 5/6/6 
f 5/6/6 4/5/5 17/34/36 
s 2
f 18/22/20 3/3/3 10/12/12 
f 10/12/12 27/35/37 18/22/20 
f 17/21/19 4/4/4 3/3/3 
f 3/3/3 18/22/20 17/21/19 
s 64
f 16/27/38 14/16/16 13/15/15 
f 13/15/15 17/34/36 16/27/38 
s 32
f 20/36/17 8/17/17 15/19/17 
f 15/19/17 28/37/17 20/36/17 
s 2
f 19/23/21 18/22/20 27/35/37 
f 27/35/37 24/28/39 19/23/21 
s off
f 14/16/40 22/16/40 26/38/40 
f 26/38/41 11/13/41 14/16/41 
s 64
f 15/25/23 6/7/7 29/39/42 
f 29/39/42 28/40/43 15/25/23 
f 6/7/7 5/6/6 30/41/44 
f 30/41/44 29/39/42 6/7/7 
f 5/6/6 13/15/15 12/14/14 
f 12/14/14 30/41/44 5/6/6 
s 2
f 31/1/45 32/4/46 33/3/47 
f 33/3/47 34/2/48 31/1/45 
s 64
f 32/5/49 31/8/50 35/7/51 
f 35/7/51 36/6/52 32/5/49 
s 2
f 37/9/53 31/1/45 34/2/48 
f 34/2/48 38/10/54 37/9/53 
f 34/2/48 33/3/47 10/12/12 
f 10/12/12 9/11/11 34/2/48 
s 64
f 11/13/13 39/16/55 40/15/56 
f 40/15/56 12/14/14 11/13/13 
s 32
f 38/17/17 41/19/17 37/18/17 
s 2
f 42/20/57 43/23/58 44/22/59 
f 44/22/59 45/21/60 42/20/57 
f 38/10/54 34/2/48 9/11/11 
f 9/11/11 20/24/22 38/10/54 
s 64
f 41/25/61 35/7/51 31/8/50 
f 31/8/50 37/26/62 41/25/61 
s off
f 39/16/63 46/16/63 47/27/63 
f 47/27/64 42/27/64 39/16/64 
f 42/20/65 47/20/65 48/23/65 
f 48/23/66 43/23/66 42/20/66 
f 24/28/67 43/23/67 48/23/67 
f 48/23/68 25/29/68 24/28/68 
f 46/16/69 48/23/69 47/27/69 
s 1
f 25/30/32 48/33/70 46/32/71 
f 46/32/71 26/31/33 25/30/32 
s 64
f 45/34/72 32/5/49 36/6/52 
f 36/6/52 40/15/56 45/34/72 
s 2
f 44/22/59 27/35/37 10/12/12 
f 10/12/12 33/3/47 44/22/59 
f 45/21/60 44/22/59 33/3/47 
f 33/3/47 32/4/46 45/21/60 
s 64
f 42/27/73 45/34/72 40/15/56 
f 40/15/56 39/16/55 42/27/73 
s 32
f 20/36/17 28/37/17 41/19/17 
f 41/19/17 38/17/17 20/36/17 
s 2
f 43/23/58 24/28/39 27/35/37 
f 27/35/37 44/22/59 43/23/58 
s off
f 39/16/74 11/13/74 26/38/74 
f 26/38/75 46/16/75 39/16/75 
s 64
f 41/25/61 28/40/43 29/39/42 
f 29/39/42 35/7/51 41/25/61 
f 35/7/51 29/39/42 30/41/44 
f 30/41/44 36/6/52 35/7/51 
f 36/6/52 30/41/44 12/14/14 
f 12/14/14 40/15/56 36/6/52 
# 92 faces

