# 3ds Max Wavefront OBJ Exporter v0.97b - (c)2007 guruware
# File Created: 27.05.2021 11:27:24

#
# object Object002
#

v  0.4570 71.1829 -10.4166
v  0.4687 71.1829 -14.1774
v  11.9535 71.1829 -14.1774
v  2.2069 71.1829 -9.6210
v  2.8167 71.1829 -7.9229
v  12.0116 71.1829 -8.0451
v  0.3167 23.1632 -3.9547
v  0.4687 23.1741 -6.0751
v  4.5971 23.2665 -6.2074
v  4.6552 23.2665 -2.8590
v  2.6559 23.2665 -2.3787
v  1.6562 23.2665 -3.6834
v  0.1252 71.1828 9.0553
v  0.1216 71.1828 -5.6789
v  2.2158 71.1828 -6.5971
v  12.3380 71.1828 9.0553
v  2.7476 71.1828 -8.2784
v  11.9612 71.1828 -8.3472
v  4.5667 23.2569 0.6072
v  0.1252 23.2569 1.5255
v  0.1216 23.2569 0.4096
v  4.6553 23.2569 -3.8440
v  2.6405 23.2569 -2.4234
v  2.0256 23.2569 -0.3296
v  0.7684 71.1828 9.0553
v  -11.3719 71.1828 9.0553
v  -1.1458 71.1828 -6.5997
v  0.9655 71.1828 -5.6310
v  -11.0729 71.1828 -8.1818
v  -1.7494 71.1828 -8.2945
v  0.7684 23.1869 1.4377
v  -3.5704 23.1869 1.5200
v  0.9655 23.1869 0.4888
v  -3.5105 23.1869 -2.0887
v  -1.7658 23.1869 -1.9898
v  -0.9072 23.1869 -0.0949
v  0.6320 71.1829 -10.4166
v  -1.2028 71.1829 -9.5835
v  -10.9041 71.1829 -14.1774
v  0.6242 71.1829 -14.1774
v  -1.7434 71.1829 -7.9162
v  -10.9622 71.1829 -7.9877
v  0.6242 23.1660 -6.0631
v  0.5914 23.1660 -3.9211
v  -1.2565 23.1660 -2.8699
v  -3.4885 23.1660 -6.0631
v  -1.6943 23.1660 -1.1105
v  -3.5466 23.1660 -2.1067
# 48 vertices

vn 0.0000 1.0000 -0.0000
vn -1.0000 0.0025 -0.0031
vn -0.9974 -0.0121 -0.0716
vn 0.0000 -0.1664 -0.9861
vn -0.0280 -0.1598 -0.9867
vn 0.9881 -0.1533 -0.0094
vn 0.9880 -0.1535 -0.0171
vn 0.0132 0.1056 0.9943
vn 0.2321 0.1110 0.9663
vn -0.4110 0.1168 0.9041
vn -0.2065 0.1311 0.9696
vn -0.9403 0.0422 0.3376
vn -0.7909 0.0842 0.6061
vn 0.0000 -0.1736 0.9848
vn 0.2001 -0.1521 0.9679
vn -1.0000 -0.0000 0.0002
vn -1.0000 0.0004 0.0032
vn 0.9881 -0.1526 -0.0214
vn 0.9864 -0.1634 0.0196
vn -0.0074 -0.1212 -0.9926
vn -0.5762 0.0110 -0.8172
vn -0.3989 -0.1156 -0.9097
vn -0.3593 -0.1196 -0.9255
vn -0.9528 -0.0356 -0.3013
vn -0.9590 -0.0323 -0.2816
vn 0.0000 -0.1568 0.9876
vn 0.0188 -0.1521 0.9882
vn 0.9999 0.0017 0.0134
vn 0.9786 -0.0322 0.2032
vn -0.9873 -0.1578 -0.0171
vn -0.9874 -0.1577 -0.0164
vn -0.0120 -0.1278 -0.9917
vn 0.0562 -0.1301 -0.9899
vn 0.4140 -0.1202 -0.9023
vn 0.2954 -0.1208 -0.9477
vn 0.9411 -0.0443 -0.3352
vn 0.9097 -0.0513 -0.4122
vn 1.0000 -0.0003 -0.0021
vn 0.9999 0.0012 0.0153
vn 0.4104 0.1219 0.9037
vn 0.4909 0.1201 0.8629
vn 0.0000 -0.1666 -0.9860
vn 0.9504 0.0420 0.3082
vn 0.9698 0.0352 0.2413
vn -0.0077 0.1403 0.9901
vn -0.4734 0.0347 0.8802
vn -0.9881 -0.1537 -0.0093
vn -0.9878 -0.1550 -0.0145
vn 0.0000 -1.0000 0.0000
vn -0.0000 -1.0000 0.0000
vn 0.0621 -0.9954 0.0723
vn 0.0223 -0.9997 -0.0035
vn 0.0000 -1.0000 -0.0000
# 53 vertex normals

vt 0.0000 0.5000 0.0000
vt 0.0000 1.0000 0.0000
vt 1.0000 1.0000 0.0000
vt 0.3218 0.1782 0.0000
vt 0.5000 0.0000 0.0000
vt 1.0000 0.0000 0.0000
vt 1.0000 0.5550 0.0000
vt 0.7726 0.7374 0.0000
vt 0.0000 0.0000 0.0000
vt 0.4450 1.0000 0.0000
# 10 texture coords

o Object002
g Object002
s 1
f 3/3/1 2/2/1 1/1/1 
f 1/1/1 4/4/1 3/3/1 
f 3/3/1 4/4/1 5/5/1 
f 5/5/1 6/6/1 3/3/1 
s off
f 7/1/2 1/1/2 2/2/2 
f 2/2/3 8/2/3 7/1/3 
f 8/2/4 2/2/4 3/3/4 
f 3/3/5 9/3/5 8/2/5 
f 9/3/6 3/3/6 6/6/6 
f 6/6/7 10/6/7 9/3/7 
f 10/6/8 6/6/8 5/5/8 
f 5/5/9 11/5/9 10/6/9 
f 12/4/10 4/4/10 1/1/10 
f 1/1/11 7/1/11 12/4/11 
f 11/5/12 5/5/12 4/4/12 
f 4/4/13 12/4/13 11/5/13 
s 4
f 15/8/1 14/7/1 13/6/1 
f 13/6/1 16/9/1 15/8/1 
f 16/9/1 18/2/1 17/10/1 
f 17/10/1 15/8/1 16/9/1 
s off
f 19/9/14 16/9/14 13/6/14 
f 13/6/15 20/6/15 19/9/15 
f 20/6/16 13/6/16 14/7/16 
f 14/7/17 21/7/17 20/6/17 
f 22/2/18 18/2/18 16/9/18 
f 16/9/19 19/9/19 22/2/19 
f 23/10/20 17/10/20 18/2/20 
f 18/2/21 22/2/21 23/10/21 
f 21/7/22 14/7/22 15/8/22 
f 15/8/23 24/8/23 21/7/23 
f 24/8/24 15/8/24 17/10/24 
f 17/10/25 23/10/25 24/8/25 
s 4
f 27/8/1 26/9/1 25/6/1 
f 25/6/1 28/7/1 27/8/1 
f 29/2/1 26/9/1 27/8/1 
f 27/8/1 30/10/1 29/2/1 
s off
f 31/6/26 25/6/26 26/9/26 
f 26/9/27 32/9/27 31/6/27 
f 33/7/28 28/7/28 25/6/28 
f 25/6/29 31/6/29 33/7/29 
f 32/9/30 26/9/30 29/2/30 
f 29/2/31 34/2/31 32/9/31 
f 34/2/32 29/2/32 30/10/32 
f 30/10/33 35/10/33 34/2/33 
f 36/8/34 27/8/34 28/7/34 
f 28/7/35 33/7/35 36/8/35 
f 35/10/36 30/10/36 27/8/36 
f 27/8/37 36/8/37 35/10/37 
s 1
f 39/3/1 38/4/1 37/1/1 
f 37/1/1 40/2/1 39/3/1 
f 39/3/1 42/6/1 41/5/1 
f 41/5/1 38/4/1 39/3/1 
s off
f 43/2/38 40/2/38 37/1/38 
f 37/1/39 44/1/39 43/2/39 
f 44/1/40 37/1/40 38/4/40 
f 38/4/41 45/4/41 44/1/41 
f 46/3/42 39/3/42 40/2/42 
f 40/2/42 43/2/42 46/3/42 
f 45/4/43 38/4/43 41/5/43 
f 41/5/44 47/5/44 45/4/44 
f 47/5/45 41/5/45 42/6/45 
f 42/6/46 48/6/46 47/5/46 
f 48/6/47 42/6/47 39/3/47 
f 39/3/48 46/3/48 48/6/48 
f 21/7/49 24/8/49 19/9/49 
f 19/9/49 20/6/49 21/7/49 
f 36/8/50 33/7/50 31/6/50 
f 31/6/49 32/9/49 36/8/49 
f 9/3/51 12/4/51 7/1/51 
f 7/1/52 8/2/52 9/3/52 
f 45/4/49 46/3/49 43/2/49 
f 43/2/49 44/1/49 45/4/49 
f 34/2/53 35/10/53 36/8/53 
f 36/8/50 32/9/50 34/2/50 
f 24/8/53 23/10/53 19/9/53 
f 23/10/49 22/2/49 19/9/49 
f 10/6/49 11/5/49 12/4/49 
f 12/4/49 9/3/49 10/6/49 
f 45/4/49 47/5/49 48/6/49 
f 48/6/49 46/3/49 45/4/49 
# 80 faces

