# 3ds Max Wavefront OBJ Exporter v0.97b - (c)2007 guruware
# File Created: 28.05.2021 18:08:51

#
# object Petit_hexa
#

v  -0.0486 -0.6401 0.0841
v  -0.0971 -0.6401 -0.0000
v  0.0971 -0.6401 -0.0000
v  0.0486 -0.6401 0.0841
v  0.0486 -0.6401 -0.0841
v  0.0486 0.6401 -0.0841
v  0.0971 0.6401 0.0000
v  -0.0486 -0.6401 -0.0841
v  -0.0486 0.6401 -0.0841
v  -0.0971 0.6401 0.0000
v  -0.0486 0.6401 0.0841
v  0.0486 0.6401 0.0841
# 12 vertices

vn 0.0000 -1.0000 -0.0000
vn 0.8660 0.0000 -0.5000
vn 0.0000 0.0000 -1.0000
vn -0.8660 0.0000 -0.5000
vn -0.8660 -0.0000 0.5000
vn 0.0000 -0.0000 1.0000
vn 0.8660 -0.0000 0.5000
vn 0.8660 0.0000 0.5000
vn 0.0000 1.0000 -0.0000
# 9 vertex normals

vt 0.8656 0.9361 0.0000
vt 0.8629 0.9314 0.0000
vt 0.8736 0.9314 0.0000
vt 0.8709 0.9361 0.0000
vt 0.8739 0.3982 0.0000
vt 0.8739 0.4035 0.0000
vt 0.8230 0.4036 0.0000
vt 0.8230 0.3983 0.0000
vt 0.8739 0.4088 0.0000
vt 0.8230 0.4090 0.0000
vt 0.8740 0.4142 0.0000
vt 0.8230 0.4143 0.0000
vt 0.8740 0.4195 0.0000
vt 0.8230 0.4196 0.0000
vt 0.8739 0.3875 0.0000
vt 0.8739 0.3929 0.0000
vt 0.8230 0.3930 0.0000
vt 0.8230 0.3876 0.0000
vt 0.1345 0.5200 0.0000
vt 0.1239 0.5200 0.0000
vt 0.1265 0.5154 0.0000
vt 0.1319 0.5154 0.0000
vt 0.1319 0.5246 0.0000
vt 0.1265 0.5246 0.0000
vt 0.8656 0.9268 0.0000
vt 0.8709 0.9268 0.0000
# 26 texture coords

o Petit_hexa
g Petit_hexa
s 1
f 1/1/1 2/2/1 3/3/1 
f 3/3/1 4/4/1 1/1/1 
s off
f 3/5/2 5/6/2 6/7/2 
f 6/7/2 7/8/2 3/5/2 
f 5/6/3 8/9/3 9/10/3 
f 9/10/3 6/7/3 5/6/3 
f 8/9/4 2/11/4 10/12/4 
f 10/12/4 9/10/4 8/9/4 
f 2/11/5 1/13/5 11/14/5 
f 11/14/5 10/12/5 2/11/5 
f 1/15/6 4/16/6 12/17/6 
f 12/17/6 11/18/6 1/15/6 
f 4/16/7 3/5/7 7/8/7 
f 7/8/8 12/17/8 4/16/8 
s 1
f 7/19/9 10/20/9 11/21/9 
f 11/21/9 12/22/9 7/19/9 
f 6/23/9 9/24/9 10/20/9 
f 10/20/9 7/19/9 6/23/9 
f 8/25/1 5/26/1 3/3/1 
f 3/3/1 2/2/1 8/25/1 
# 20 faces

