# 3ds Max Wavefront OBJ Exporter v0.97b - (c)2007 guruware
# File Created: 26.05.2021 15:04:15

#
# object PlateformeV4
#

v  -1.0605 0.0209 -0.6757
v  -1.0605 0.0209 -1.0625
v  -0.8755 -0.1641 -0.8775
v  -0.8755 -0.1641 -0.5610
v  -0.6605 0.0209 -1.0625
v  -0.5495 -0.1641 -0.8775
v  -1.0196 -0.0065 0.7402
v  -1.0196 -0.0065 1.0244
v  -0.7000 -0.0065 1.0244
v  -0.7000 -0.0065 0.7402
v  -0.3505 -0.6495 0.3221
v  -0.8150 -0.1850 0.8150
v  -0.8150 -0.1850 0.5074
v  -0.3505 -0.6495 0.1898
v  -0.3505 -0.6495 -0.3790
v  -0.8150 -0.1850 -0.8150
v  -0.4890 -0.1850 -0.8150
v  -0.2103 -0.6495 -0.3790
v  -0.6598 0.0159 1.0646
v  -1.0598 0.0159 1.0646
v  -0.8748 -0.1691 0.8796
v  -0.5488 -0.1691 0.8796
v  -1.0234 0.0326 -0.5327
v  -0.8384 -0.1524 -0.4336
v  -0.8384 -0.1524 0.4425
v  -1.0234 0.0326 0.5549
v  -1.0203 -0.0015 -1.0223
v  -1.0203 -0.0015 -0.7159
v  -0.7007 -0.0015 -0.7159
v  -0.7007 -0.0015 -1.0223
v  -0.6234 0.0326 0.5549
v  -0.6234 0.0326 -0.5327
v  -1.0598 0.0159 0.7001
v  -0.8748 -0.1691 0.5720
v  -0.6000 -0.0000 -1.0000
v  -0.6605 0.0209 -0.6757
v  -0.6000 -0.0000 -0.6132
v  -1.0000 -0.0000 -0.6132
v  -0.8150 -0.1850 -0.4985
v  -0.6000 0.0000 1.0000
v  -0.4890 -0.1850 0.8150
v  -1.0000 0.0000 0.6355
v  -0.6598 0.0159 0.7001
v  -0.6000 0.0000 0.6355
v  -0.7000 0.0159 1.0244
v  -1.0196 0.0159 1.0244
v  -1.0196 0.0159 0.7402
v  -0.7000 0.0159 0.7402
v  -1.0203 0.0209 -0.7159
v  -1.0203 0.0209 -1.0223
v  -0.7007 0.0209 -1.0223
v  -0.7007 0.0209 -0.7159
v  -1.0000 0.0000 0.5549
v  -0.8150 -0.1850 0.4425
v  -0.8150 -0.1850 -0.4336
v  -1.0000 -0.0000 -0.5327
v  -0.6000 -0.0000 -0.5327
v  -0.6000 0.0000 0.5549
v  -0.2103 -0.6495 0.3221
v  -0.0211 -0.1850 -0.8150
v  -0.0211 -0.6495 -0.3790
v  -0.3505 -0.6495 0.1618
v  -0.3505 -0.6495 -0.2429
v  -0.3505 -0.6495 -0.2150
v  -0.2103 -0.6495 -0.2429
v  -0.0211 -0.6495 -0.2429
v  -0.2103 -0.6495 0.1898
v  -0.0211 -0.6495 0.1898
v  -0.0211 -0.6495 0.3221
v  -0.2103 -0.6495 0.1618
v  -0.0211 -0.6495 0.1618
v  -0.2103 -0.6495 -0.2150
v  -0.0211 -0.6495 -0.2150
v  -0.0211 -0.0000 -0.6132
v  -0.0211 -0.0000 -1.0000
v  -0.0211 -0.1850 0.8150
v  -0.0211 0.0000 1.0000
v  -0.0211 0.0000 0.5549
v  -0.0211 -0.0000 -0.5327
v  -0.0211 0.0000 0.6355
v  -0.0211 -0.1850 -0.5077
v  -0.0211 -0.1850 -0.4422
v  -0.0211 -0.1850 0.4429
v  -0.0211 -0.1850 0.5085
v  1.0605 0.0209 -0.6757
v  0.8755 -0.1641 -0.5610
v  0.8755 -0.1641 -0.8775
v  1.0605 0.0209 -1.0625
v  0.6605 0.0209 -1.0625
v  0.5495 -0.1641 -0.8775
v  1.0196 -0.0065 0.7402
v  0.7000 -0.0065 0.7402
v  0.7000 -0.0065 1.0244
v  1.0196 -0.0065 1.0244
v  0.3505 -0.6495 0.3221
v  0.3505 -0.6495 0.1898
v  0.8150 -0.1850 0.5074
v  0.8150 -0.1850 0.8150
v  0.3505 -0.6495 -0.3790
v  0.2103 -0.6495 -0.3790
v  0.4890 -0.1850 -0.8150
v  0.8150 -0.1850 -0.8150
v  0.6598 0.0159 1.0646
v  0.5488 -0.1691 0.8796
v  0.8748 -0.1691 0.8796
v  1.0598 0.0159 1.0646
v  1.0234 0.0326 -0.5327
v  1.0234 0.0326 0.5549
v  0.8384 -0.1524 0.4425
v  0.8384 -0.1524 -0.4336
v  1.0203 -0.0015 -1.0223
v  0.7007 -0.0015 -1.0223
v  0.7007 -0.0015 -0.7159
v  1.0203 -0.0015 -0.7159
v  0.6234 0.0326 -0.5327
v  0.6234 0.0326 0.5549
v  1.0598 0.0159 0.7001
v  0.8748 -0.1691 0.5720
v  0.6000 -0.0000 -1.0000
v  0.6000 -0.0000 -0.6132
v  0.6605 0.0209 -0.6757
v  1.0000 -0.0000 -0.6132
v  0.8150 -0.1850 -0.4985
v  0.6000 0.0000 1.0000
v  0.4890 -0.1850 0.8150
v  1.0000 0.0000 0.6355
v  0.6000 0.0000 0.6355
v  0.6598 0.0159 0.7001
v  1.0196 0.0159 1.0244
v  0.7000 0.0159 1.0244
v  1.0196 0.0159 0.7402
v  0.7000 0.0159 0.7402
v  1.0203 0.0209 -1.0223
v  1.0203 0.0209 -0.7159
v  0.7007 0.0209 -1.0223
v  0.7007 0.0209 -0.7159
v  1.0000 0.0000 0.5549
v  0.8150 -0.1850 0.4425
v  1.0000 -0.0000 -0.5327
v  0.8150 -0.1850 -0.4336
v  0.6000 -0.0000 -0.5327
v  0.6000 0.0000 0.5549
v  0.2103 -0.6495 0.3221
v  0.0211 -0.1850 -0.8150
v  0.0211 -0.6495 -0.3790
v  0.3505 -0.6495 0.1618
v  0.3505 -0.6495 -0.2429
v  0.3505 -0.6495 -0.2150
v  0.2103 -0.6495 -0.2429
v  0.0211 -0.6495 -0.2429
v  0.2103 -0.6495 0.1898
v  0.0211 -0.6495 0.3221
v  0.0211 -0.6495 0.1898
v  0.2103 -0.6495 0.1618
v  0.0211 -0.6495 0.1618
v  0.2103 -0.6495 -0.2150
v  0.0211 -0.6495 -0.2150
v  0.0211 -0.0000 -1.0000
v  0.0211 -0.0000 -0.6132
v  0.0211 0.0000 1.0000
v  0.0211 -0.1850 0.8150
v  0.0211 0.0000 0.5549
v  0.0211 -0.0000 -0.5327
v  0.0211 0.0000 0.6355
v  0.0211 -0.1850 -0.5077
v  0.0211 -0.1850 -0.4422
v  0.0211 -0.1850 0.4429
v  0.0211 -0.1850 0.5085
v  -0.3505 -0.7300 0.3221
v  0.0000 -1.0806 -0.0500
v  0.3505 -0.7300 0.3221
v  0.3505 -0.7300 -0.3790
v  -0.3505 -0.7300 -0.3790
# 173 vertices

vn -0.7071 -0.7071 0.0000
vn 0.0000 -0.7071 -0.7071
vn 0.0000 1.0000 -0.0000
vn -0.7071 -0.7071 -0.0000
vn -0.0000 -0.6844 -0.7291
vn 0.0000 -0.7071 0.7071
vn -0.0000 -0.7071 0.7071
vn 0.3269 0.9451 -0.0000
vn 0.0000 0.9482 0.3177
vn -0.7267 -0.3664 0.5811
vn -0.3269 -0.9451 0.0000
vn 0.0000 -0.9482 -0.3177
vn 0.6155 -0.3412 -0.7105
vn 0.6665 -0.2878 0.6877
vn 0.0000 -0.9712 0.2384
vn -0.2563 -0.9666 0.0000
vn -0.7335 -0.3174 -0.6011
vn 0.0000 0.9712 -0.2384
vn 0.2563 0.9666 -0.0000
vn -0.0000 1.0000 -0.0000
vn 0.0000 -0.0000 -1.0000
vn 1.0000 0.0000 -0.0000
vn 0.0000 0.0000 1.0000
vn -1.0000 0.0000 -0.0000
vn 0.0000 -0.7278 0.6858
vn 0.0000 -0.6844 -0.7291
vn 0.0000 -1.0000 0.0000
vn 0.0000 -1.0000 -0.0000
vn -0.0000 -1.0000 0.0000
vn 0.8127 0.5826 -0.0000
vn -0.7600 -0.5449 -0.3542
vn -0.8127 -0.5826 0.0000
vn -0.7467 -0.5353 0.3949
vn -0.0000 -0.7278 0.6858
vn 0.7071 -0.7071 0.0000
vn -0.0000 -0.7071 -0.7071
vn 0.7071 -0.7071 -0.0000
vn -0.3269 0.9451 -0.0000
vn 0.7267 -0.3664 0.5811
vn 0.3269 -0.9451 0.0000
vn -0.0000 -0.9482 -0.3177
vn -0.6155 -0.3412 -0.7105
vn -0.6665 -0.2878 0.6877
vn -0.0000 -0.9712 0.2384
vn 0.2563 -0.9666 0.0000
vn 0.7335 -0.3174 -0.6011
vn -0.2563 0.9666 -0.0000
vn -0.0000 -1.0000 -0.0000
vn -0.8127 0.5826 -0.0000
vn 0.7600 -0.5449 -0.3542
vn 0.8127 -0.5826 0.0000
vn 0.7467 -0.5353 0.3949
# 52 vertex normals

vt 0.0102 0.8775 0.0000
vt 0.0183 0.9414 0.0000
vt 0.0578 0.9049 0.0000
vt 0.0511 0.8531 0.0000
vt 0.0835 0.9550 0.0000
vt 0.1105 0.9161 0.0000
vt 0.1137 0.6627 0.0000
vt 0.1137 0.6152 0.0000
vt 0.0603 0.6152 0.0000
vt 0.0603 0.6627 0.0000
vt 0.1908 0.4650 0.0000
vt 0.1090 0.5753 0.0000
vt 0.1605 0.5750 0.0000
vt 0.2129 0.4649 0.0000
vt 0.3081 0.4644 0.0000
vt 0.3816 0.5738 0.0000
vt 0.4002 0.5226 0.0000
vt 0.3161 0.4424 0.0000
vt 0.4286 0.9521 0.0000
vt 0.4919 0.9317 0.0000
vt 0.4488 0.8996 0.0000
vt 0.3977 0.9162 0.0000
vt 0.3446 0.9110 0.0000
vt 0.3283 0.8671 0.0000
vt 0.1818 0.8664 0.0000
vt 0.1628 0.9100 0.0000
vt 0.4292 0.6578 0.0000
vt 0.4292 0.6065 0.0000
vt 0.3758 0.6065 0.0000
vt 0.3758 0.6578 0.0000
vt 0.1625 0.9769 0.0000
vt 0.3443 0.9778 0.0000
vt 0.4931 0.8710 0.0000
vt 0.4499 0.8489 0.0000
vt 0.0833 0.8108 0.0000
vt 0.0728 0.8216 0.0000
vt 0.1374 0.8211 0.0000
vt 0.1480 0.8106 0.0000
vt 0.1378 0.8879 0.0000
vt 0.1488 0.8776 0.0000
vt 0.0178 0.8646 0.0000
vt 0.0595 0.8409 0.0000
vt 0.0686 0.8947 0.0000
vt 0.1232 0.9084 0.0000
vt 0.0968 0.9483 0.0000
vt 0.4144 0.9474 0.0000
vt 0.3842 0.9102 0.0000
vt 0.4371 0.8903 0.0000
vt 0.4409 0.8371 0.0000
vt 0.4851 0.8585 0.0000
vt 0.3568 0.8767 0.0000
vt 0.3679 0.8868 0.0000
vt 0.3678 0.8199 0.0000
vt 0.3568 0.8098 0.0000
vt 0.4287 0.8199 0.0000
vt 0.4178 0.8095 0.0000
vt 0.4220 0.8266 0.0000
vt 0.4222 0.8800 0.0000
vt 0.4289 0.8867 0.0000
vt 0.3746 0.8801 0.0000
vt 0.3745 0.8266 0.0000
vt 0.1311 0.8812 0.0000
vt 0.0798 0.8817 0.0000
vt 0.0732 0.8885 0.0000
vt 0.0795 0.8283 0.0000
vt 0.1308 0.8278 0.0000
vt 0.0603 0.6114 0.0000
vt 0.1137 0.6114 0.0000
vt 0.1174 0.6152 0.0000
vt 0.1174 0.6627 0.0000
vt 0.1137 0.6665 0.0000
vt 0.0603 0.6665 0.0000
vt 0.0565 0.6627 0.0000
vt 0.0565 0.6152 0.0000
vt 0.4330 0.6065 0.0000
vt 0.4330 0.6578 0.0000
vt 0.4292 0.6615 0.0000
vt 0.3758 0.6615 0.0000
vt 0.3720 0.6578 0.0000
vt 0.3720 0.6065 0.0000
vt 0.3758 0.6028 0.0000
vt 0.4292 0.6028 0.0000
vt 0.1528 0.6188 0.0000
vt 0.1713 0.5749 0.0000
vt 0.1394 0.6189 0.0000
vt 0.3286 0.5741 0.0000
vt 0.3178 0.5741 0.0000
vt 0.3336 0.6180 0.0000
vt 0.3470 0.6183 0.0000
vt 0.1622 0.8774 0.0000
vt 0.1615 0.8105 0.0000
vt 0.3434 0.8098 0.0000
vt 0.3433 0.8767 0.0000
vt 0.1832 0.4428 0.0000
vt 0.0913 0.5238 0.0000
vt 0.4270 0.4491 0.0000
vt 0.3269 0.4126 0.0000
vt 0.2176 0.4648 0.0000
vt 0.2853 0.4645 0.0000
vt 0.2806 0.4645 0.0000
vt 0.1913 0.4121 0.0000
vt 0.2141 0.4121 0.0000
vt 0.2141 0.3887 0.0000
vt 0.1913 0.3886 0.0000
vt 0.1913 0.4437 0.0000
vt 0.2141 0.4438 0.0000
vt 0.3086 0.3887 0.0000
vt 0.2864 0.3887 0.0000
vt 0.2864 0.4122 0.0000
vt 0.3085 0.4122 0.0000
vt 0.2864 0.4438 0.0000
vt 0.3085 0.4438 0.0000
vt 0.2818 0.3887 0.0000
vt 0.2817 0.4122 0.0000
vt 0.2817 0.4438 0.0000
vt 0.2188 0.3887 0.0000
vt 0.2187 0.4121 0.0000
vt 0.2187 0.4438 0.0000
vt 0.3443 0.9846 0.0000
vt 0.1624 0.9836 0.0000
vt 0.1570 0.9808 0.0000
vt 0.1573 0.9139 0.0000
vt 0.1626 0.9033 0.0000
vt 0.1816 0.8597 0.0000
vt 0.1818 0.8597 0.0000
vt 0.3283 0.8604 0.0000
vt 0.3286 0.8604 0.0000
vt 0.3449 0.9043 0.0000
vt 0.3501 0.9149 0.0000
vt 0.3497 0.9818 0.0000
vt 0.1476 0.7138 0.0000
vt 0.0830 0.7140 0.0000
vt 0.0658 0.4498 0.0000
vt 0.0244 0.4641 0.0000
vt 0.0560 0.5556 0.0000
vt 0.4681 0.4640 0.0000
vt 0.4350 0.5550 0.0000
vt 0.3430 0.7130 0.0000
vt 0.1611 0.7137 0.0000
vt 0.4174 0.7127 0.0000
vt 0.3564 0.7130 0.0000
vt 0.1728 0.4129 0.0000
vt 0.1138 0.6830 0.0000
vt 0.1652 0.6828 0.0000
vt 0.1761 0.6828 0.0000
vt 0.3241 0.6822 0.0000
vt 0.3863 0.6819 0.0000
vt 0.3351 0.6821 0.0000
vt 0.1864 0.6050 0.0000
vt 0.2091 0.6050 0.0000
vt 0.2138 0.6049 0.0000
vt 0.2768 0.6047 0.0000
vt 0.2815 0.6047 0.0000
vt 0.3036 0.6046 0.0000
vt 0.5056 0.8704 0.0000
vt 0.5465 0.8460 0.0000
vt 0.5532 0.8979 0.0000
vt 0.5137 0.9343 0.0000
vt 0.5789 0.9480 0.0000
vt 0.6059 0.9090 0.0000
vt 0.6091 0.6556 0.0000
vt 0.5557 0.6556 0.0000
vt 0.5557 0.6081 0.0000
vt 0.6091 0.6081 0.0000
vt 0.6862 0.4579 0.0000
vt 0.7083 0.4578 0.0000
vt 0.6559 0.5679 0.0000
vt 0.6045 0.5682 0.0000
vt 0.8035 0.4573 0.0000
vt 0.8115 0.4353 0.0000
vt 0.8956 0.5155 0.0000
vt 0.8770 0.5667 0.0000
vt 0.9208 0.9441 0.0000
vt 0.8899 0.9082 0.0000
vt 0.9410 0.8916 0.0000
vt 0.9841 0.9237 0.0000
vt 0.8401 0.9039 0.0000
vt 0.6582 0.9030 0.0000
vt 0.6772 0.8593 0.0000
vt 0.8237 0.8600 0.0000
vt 0.9246 0.6507 0.0000
vt 0.8712 0.6507 0.0000
vt 0.8712 0.5995 0.0000
vt 0.9246 0.5995 0.0000
vt 0.8397 0.9708 0.0000
vt 0.6579 0.9698 0.0000
vt 0.9853 0.8630 0.0000
vt 0.9421 0.8409 0.0000
vt 0.5787 0.8038 0.0000
vt 0.6434 0.8035 0.0000
vt 0.6328 0.8140 0.0000
vt 0.5682 0.8145 0.0000
vt 0.6442 0.8705 0.0000
vt 0.6332 0.8808 0.0000
vt 0.5132 0.8575 0.0000
vt 0.5549 0.8338 0.0000
vt 0.5640 0.8876 0.0000
vt 0.6186 0.9014 0.0000
vt 0.5922 0.9412 0.0000
vt 0.9066 0.9393 0.0000
vt 0.8764 0.9022 0.0000
vt 0.9293 0.8823 0.0000
vt 0.9331 0.8291 0.0000
vt 0.9773 0.8504 0.0000
vt 0.8522 0.8696 0.0000
vt 0.8522 0.8027 0.0000
vt 0.8632 0.8128 0.0000
vt 0.8634 0.8797 0.0000
vt 0.9132 0.8025 0.0000
vt 0.9241 0.8128 0.0000
vt 0.9243 0.8797 0.0000
vt 0.9176 0.8730 0.0000
vt 0.9174 0.8195 0.0000
vt 0.8701 0.8730 0.0000
vt 0.8699 0.8195 0.0000
vt 0.5686 0.8814 0.0000
vt 0.5752 0.8746 0.0000
vt 0.6265 0.8742 0.0000
vt 0.5750 0.8212 0.0000
vt 0.6262 0.8207 0.0000
vt 0.5557 0.6044 0.0000
vt 0.6091 0.6044 0.0000
vt 0.6129 0.6081 0.0000
vt 0.6129 0.6556 0.0000
vt 0.6091 0.6594 0.0000
vt 0.5557 0.6594 0.0000
vt 0.5519 0.6556 0.0000
vt 0.5519 0.6081 0.0000
vt 0.9284 0.5995 0.0000
vt 0.9284 0.6507 0.0000
vt 0.9246 0.6544 0.0000
vt 0.8712 0.6544 0.0000
vt 0.8674 0.6507 0.0000
vt 0.8674 0.5995 0.0000
vt 0.8712 0.5957 0.0000
vt 0.9246 0.5957 0.0000
vt 0.6482 0.6117 0.0000
vt 0.6348 0.6118 0.0000
vt 0.6667 0.5679 0.0000
vt 0.8241 0.5670 0.0000
vt 0.8424 0.6112 0.0000
vt 0.8290 0.6110 0.0000
vt 0.8132 0.5670 0.0000
vt 0.6569 0.8035 0.0000
vt 0.6576 0.8703 0.0000
vt 0.8388 0.8696 0.0000
vt 0.8388 0.8027 0.0000
vt 0.5867 0.5167 0.0000
vt 0.6786 0.4358 0.0000
vt 0.9224 0.4420 0.0000
vt 0.8223 0.4055 0.0000
vt 0.7130 0.4578 0.0000
vt 0.7807 0.4574 0.0000
vt 0.7760 0.4574 0.0000
vt 0.6867 0.4050 0.0000
vt 0.6867 0.3816 0.0000
vt 0.7095 0.3816 0.0000
vt 0.7095 0.4050 0.0000
vt 0.6867 0.4367 0.0000
vt 0.7095 0.4367 0.0000
vt 0.8040 0.3816 0.0000
vt 0.8040 0.4051 0.0000
vt 0.7818 0.4051 0.0000
vt 0.7818 0.3816 0.0000
vt 0.8039 0.4367 0.0000
vt 0.7818 0.4367 0.0000
vt 0.7772 0.4051 0.0000
vt 0.7772 0.3816 0.0000
vt 0.7771 0.4367 0.0000
vt 0.7142 0.3816 0.0000
vt 0.7142 0.4050 0.0000
vt 0.7141 0.4367 0.0000
vt 0.8397 0.9775 0.0000
vt 0.6578 0.9765 0.0000
vt 0.6524 0.9737 0.0000
vt 0.6527 0.9068 0.0000
vt 0.6580 0.8963 0.0000
vt 0.6771 0.8526 0.0000
vt 0.6773 0.8526 0.0000
vt 0.8238 0.8533 0.0000
vt 0.8240 0.8533 0.0000
vt 0.8403 0.8972 0.0000
vt 0.8455 0.9078 0.0000
vt 0.8451 0.9747 0.0000
vt 0.5784 0.7070 0.0000
vt 0.6431 0.7067 0.0000
vt 0.5514 0.5485 0.0000
vt 0.5198 0.4570 0.0000
vt 0.5612 0.4427 0.0000
vt 0.9635 0.4570 0.0000
vt 0.9304 0.5479 0.0000
vt 0.8384 0.7059 0.0000
vt 0.6565 0.7067 0.0000
vt 0.8519 0.7059 0.0000
vt 0.9128 0.7057 0.0000
vt 0.6683 0.4058 0.0000
vt 0.6092 0.6759 0.0000
vt 0.6606 0.6757 0.0000
vt 0.6715 0.6757 0.0000
vt 0.8195 0.6751 0.0000
vt 0.8818 0.6748 0.0000
vt 0.8305 0.6750 0.0000
vt 0.6818 0.5980 0.0000
vt 0.7046 0.5979 0.0000
vt 0.7092 0.5979 0.0000
vt 0.7722 0.5976 0.0000
vt 0.7769 0.5976 0.0000
vt 0.7990 0.5975 0.0000
vt 0.5229 0.6649 0.0000
vt 0.5566 0.6881 0.0000
vt 0.5229 0.7113 0.0000
vt 0.4983 0.7440 0.0000
vt 0.4766 0.7113 0.0000
vt 0.4448 0.6881 0.0000
vt 0.4766 0.6649 0.0000
vt 0.4983 0.6322 0.0000
# 316 texture coords

o PlateformeV4
g PlateformeV4
s off
f 1/1/1 2/2/1 3/3/1 
f 3/3/1 4/4/1 1/1/1 
f 5/5/2 6/6/2 3/3/2 
f 3/3/2 2/2/2 5/5/2 
f 7/7/3 8/8/3 9/9/3 
f 9/9/3 10/10/3 7/7/3 
f 11/11/1 12/12/1 13/13/1 
f 13/13/4 14/14/4 11/11/4 
f 15/15/5 16/16/5 17/17/5 
f 17/17/5 18/18/5 15/15/5 
f 19/19/6 20/20/6 21/21/6 
f 21/21/7 22/22/7 19/19/7 
f 23/23/1 24/24/1 25/25/1 
f 25/25/1 26/26/1 23/23/1 
f 27/27/3 28/28/3 29/29/3 
f 29/29/3 30/30/3 27/27/3 
f 23/23/3 26/26/3 31/31/3 
f 31/31/3 32/32/3 23/23/3 
f 33/33/1 34/34/1 21/21/1 
f 21/21/1 20/20/1 33/33/1 
f 35/35/8 5/36/8 36/37/8 
f 36/37/8 37/38/8 35/35/8 
f 37/38/9 36/37/9 1/39/9 
f 1/39/9 38/40/9 37/38/9 
f 38/41/10 1/1/10 4/4/10 
f 4/4/10 39/42/10 38/41/10 
f 39/42/11 4/4/11 3/3/11 
f 3/3/11 16/43/11 39/42/11 
f 16/43/12 3/3/12 6/6/12 
f 6/6/12 17/44/12 16/43/12 
f 17/44/13 6/6/13 5/5/13 
f 5/5/13 35/45/13 17/44/13 
f 40/46/14 19/19/14 22/22/14 
f 22/22/14 41/47/14 40/46/14 
f 41/47/15 22/22/15 21/21/15 
f 21/21/15 12/48/15 41/47/15 
f 12/48/16 21/21/16 34/34/16 
f 34/34/16 13/49/16 12/48/16 
f 13/49/17 34/34/17 33/33/17 
f 33/33/17 42/50/17 13/49/17 
f 42/51/18 33/52/18 43/53/18 
f 43/53/18 44/54/18 42/51/18 
f 44/54/19 43/53/19 19/55/19 
f 19/55/19 40/56/19 44/54/19 
f 19/55/3 45/57/3 46/58/3 
f 46/58/3 20/59/3 19/55/3 
f 20/59/20 46/58/20 47/60/20 
f 47/60/20 33/52/20 20/59/20 
f 33/52/3 47/60/3 48/61/3 
f 48/61/3 43/53/3 33/52/3 
f 43/53/3 48/61/3 45/57/3 
f 45/57/3 19/55/3 43/53/3 
f 1/39/3 49/62/3 50/63/3 
f 50/63/20 2/64/20 1/39/20 
f 2/64/3 50/63/3 51/65/3 
f 51/65/3 5/36/3 2/64/3 
f 5/36/3 51/65/3 52/66/3 
f 52/66/20 36/37/20 5/36/20 
f 36/37/3 52/66/3 49/62/3 
f 49/62/3 1/39/3 36/37/3 
f 45/67/21 9/9/21 8/8/21 
f 8/8/21 46/68/21 45/67/21 
f 46/69/22 8/8/22 7/7/22 
f 7/7/22 47/70/22 46/69/22 
f 47/71/23 7/7/23 10/10/23 
f 10/10/23 48/72/23 47/71/23 
f 48/73/24 10/10/24 9/9/24 
f 9/9/24 45/74/24 48/73/24 
f 49/75/22 28/28/22 27/27/22 
f 27/27/22 50/76/22 49/75/22 
f 50/77/23 27/27/23 30/30/23 
f 30/30/23 51/78/23 50/77/23 
f 51/79/24 30/30/24 29/29/24 
f 29/29/24 52/80/24 51/79/24 
f 52/81/21 29/29/21 28/28/21 
f 28/28/21 49/82/21 52/81/21 
f 53/83/1 54/84/1 13/13/1 
f 13/13/1 42/85/1 53/83/1 
f 39/86/1 55/87/1 56/88/1 
f 56/88/1 38/89/1 39/86/1 
f 38/40/3 56/90/3 57/91/3 
f 57/91/3 37/38/3 38/40/3 
f 44/54/3 58/92/3 53/93/3 
f 53/93/3 42/51/3 44/54/3 
f 11/11/25 59/94/25 41/95/25 
f 41/95/25 12/12/25 11/11/25 
f 60/96/26 61/97/26 18/18/26 
f 18/18/26 17/17/26 60/96/26 
f 54/84/1 62/98/1 14/14/1 
f 14/14/1 13/13/1 54/84/1 
f 15/15/1 63/99/1 39/86/1 
f 39/86/1 16/16/1 15/15/1 
f 63/99/4 64/100/4 55/87/4 
f 55/87/1 39/86/1 63/99/1 
f 64/100/1 62/98/1 54/84/1 
f 54/84/1 55/87/1 64/100/1 
f 18/101/27 65/102/27 63/103/27 
f 63/103/27 15/104/27 18/101/27 
f 61/105/27 66/106/27 65/102/27 
f 65/102/27 18/101/27 61/105/27 
f 11/107/28 14/108/28 67/109/28 
f 67/109/27 59/110/27 11/107/27 
f 67/109/29 68/111/29 69/112/29 
f 69/112/29 59/110/29 67/109/29 
f 14/108/27 62/113/27 70/114/27 
f 70/114/27 67/109/27 14/108/27 
f 70/114/27 71/115/27 68/111/27 
f 68/111/29 67/109/29 70/114/29 
f 64/116/27 63/103/27 65/102/27 
f 65/102/27 72/117/27 64/116/27 
f 72/117/29 65/102/29 66/106/29 
f 66/106/29 73/118/29 72/117/29 
f 62/113/27 64/116/27 72/117/27 
f 72/117/27 70/114/27 62/113/27 
f 72/117/29 73/118/29 71/115/29 
f 71/115/27 70/114/27 72/117/27 
f 57/119/30 32/32/30 31/31/30 
f 31/31/30 58/120/30 57/119/30 
f 58/121/23 31/31/23 26/26/23 
f 26/26/23 53/122/23 58/121/23 
f 53/123/31 26/26/31 25/25/31 
f 25/25/31 54/124/31 53/123/31 
f 54/125/32 25/25/32 24/24/32 
f 24/24/32 55/126/32 54/125/32 
f 55/127/33 24/24/33 23/23/33 
f 23/23/33 56/128/33 55/127/33 
f 56/129/21 23/23/21 32/32/21 
f 32/32/21 57/130/21 56/129/21 
f 37/38/3 74/131/3 75/132/3 
f 75/132/3 35/35/3 37/38/3 
f 41/95/6 76/133/6 77/134/6 
f 77/134/6 40/135/6 41/95/6 
f 75/136/2 60/96/2 17/17/2 
f 17/17/2 35/137/2 75/136/2 
f 78/138/3 79/139/3 57/91/3 
f 57/91/20 58/92/20 78/138/20 
f 40/56/3 77/140/3 80/141/3 
f 80/141/3 44/54/3 40/56/3 
f 57/91/3 79/139/3 74/131/3 
f 74/131/3 37/38/3 57/91/3 
f 80/141/20 78/138/20 58/92/20 
f 58/92/3 44/54/3 80/141/3 
f 59/94/34 69/142/34 76/133/34 
f 76/133/25 41/95/25 59/94/25 
f 60/143/22 75/132/22 74/131/22 
f 74/131/22 81/144/22 60/143/22 
f 79/139/22 82/145/22 81/144/22 
f 81/144/22 74/131/22 79/139/22 
f 83/146/22 82/145/22 79/139/22 
f 79/139/22 78/138/22 83/146/22 
f 76/147/22 84/148/22 80/141/22 
f 80/141/22 77/140/22 76/147/22 
f 84/148/22 83/146/22 78/138/22 
f 78/138/22 80/141/22 84/148/22 
f 61/149/22 60/143/22 81/144/22 
f 81/144/22 66/150/22 61/149/22 
f 66/150/22 81/144/22 82/145/22 
f 82/145/22 73/151/22 66/150/22 
f 82/145/22 83/146/22 71/152/22 
f 71/152/22 73/151/22 82/145/22 
f 83/146/22 84/148/22 68/153/22 
f 68/153/22 71/152/22 83/146/22 
f 84/148/22 76/147/22 69/154/22 
f 69/154/22 68/153/22 84/148/22 
f 85/155/35 86/156/35 87/157/35 
f 87/157/35 88/158/35 85/155/35 
f 89/159/2 88/158/2 87/157/2 
f 87/157/36 90/160/36 89/159/36 
f 91/161/3 92/162/3 93/163/3 
f 93/163/3 94/164/3 91/161/3 
f 95/165/37 96/166/37 97/167/37 
f 97/167/35 98/168/35 95/165/35 
f 99/169/26 100/170/26 101/171/26 
f 101/171/26 102/172/26 99/169/26 
f 103/173/6 104/174/6 105/175/6 
f 105/175/6 106/176/6 103/173/6 
f 107/177/35 108/178/35 109/179/35 
f 109/179/35 110/180/35 107/177/35 
f 111/181/3 112/182/3 113/183/3 
f 113/183/3 114/184/3 111/181/3 
f 107/177/3 115/185/3 116/186/3 
f 116/186/3 108/178/3 107/177/3 
f 117/187/35 106/176/35 105/175/35 
f 105/175/35 118/188/35 117/187/35 
f 119/189/38 120/190/38 121/191/38 
f 121/191/38 89/192/38 119/189/38 
f 120/190/9 122/193/9 85/194/9 
f 85/194/9 121/191/9 120/190/9 
f 122/195/39 123/196/39 86/156/39 
f 86/156/39 85/155/39 122/195/39 
f 123/196/40 102/197/40 87/157/40 
f 87/157/40 86/156/40 123/196/40 
f 102/197/41 101/198/41 90/160/41 
f 90/160/41 87/157/41 102/197/41 
f 101/198/42 119/199/42 89/159/42 
f 89/159/42 90/160/42 101/198/42 
f 124/200/43 125/201/43 104/174/43 
f 104/174/43 103/173/43 124/200/43 
f 125/201/44 98/202/44 105/175/44 
f 105/175/44 104/174/44 125/201/44 
f 98/202/45 97/203/45 118/188/45 
f 118/188/45 105/175/45 98/202/45 
f 97/203/46 126/204/46 117/187/46 
f 117/187/46 118/188/46 97/203/46 
f 126/205/18 127/206/18 128/207/18 
f 128/207/18 117/208/18 126/205/18 
f 127/206/47 124/209/47 103/210/47 
f 103/210/47 128/207/47 127/206/47 
f 103/210/3 106/211/3 129/212/3 
f 129/212/3 130/213/3 103/210/3 
f 106/211/3 117/208/3 131/214/3 
f 131/214/3 129/212/3 106/211/3 
f 117/208/3 128/207/3 132/215/3 
f 132/215/3 131/214/3 117/208/3 
f 128/207/20 103/210/20 130/213/20 
f 130/213/20 132/215/20 128/207/20 
f 85/194/3 88/216/3 133/217/3 
f 133/217/20 134/218/20 85/194/20 
f 88/216/3 89/192/3 135/219/3 
f 135/219/3 133/217/3 88/216/3 
f 89/192/3 121/191/3 136/220/3 
f 136/220/20 135/219/20 89/192/20 
f 121/191/3 85/194/3 134/218/3 
f 134/218/3 136/220/3 121/191/3 
f 130/221/21 129/222/21 94/164/21 
f 94/164/21 93/163/21 130/221/21 
f 129/223/24 131/224/24 91/161/24 
f 91/161/24 94/164/24 129/223/24 
f 131/225/23 132/226/23 92/162/23 
f 92/162/23 91/161/23 131/225/23 
f 132/227/22 130/228/22 93/163/22 
f 93/163/22 92/162/22 132/227/22 
f 134/229/24 133/230/24 111/181/24 
f 111/181/24 114/184/24 134/229/24 
f 133/231/23 135/232/23 112/182/23 
f 112/182/23 111/181/23 133/231/23 
f 135/233/22 136/234/22 113/183/22 
f 113/183/22 112/182/22 135/233/22 
f 136/235/21 134/236/21 114/184/21 
f 114/184/21 113/183/21 136/235/21 
f 137/237/35 126/238/35 97/167/35 
f 97/167/35 138/239/35 137/237/35 
f 123/240/35 122/241/35 139/242/35 
f 139/242/35 140/243/35 123/240/35 
f 122/193/3 120/190/3 141/244/3 
f 141/244/3 139/245/3 122/193/3 
f 127/206/3 126/205/3 137/246/3 
f 137/246/3 142/247/3 127/206/3 
f 95/165/34 98/168/34 125/248/34 
f 125/248/34 143/249/34 95/165/34 
f 144/250/26 101/171/26 100/170/26 
f 100/170/5 145/251/5 144/250/5 
f 138/239/35 97/167/35 96/166/35 
f 96/166/35 146/252/35 138/239/35 
f 99/169/35 102/172/35 123/240/35 
f 123/240/35 147/253/35 99/169/35 
f 147/253/35 123/240/35 140/243/35 
f 140/243/37 148/254/37 147/253/37 
f 148/254/35 140/243/35 138/239/35 
f 138/239/35 146/252/35 148/254/35 
f 100/255/27 99/256/27 147/257/27 
f 147/257/27 149/258/27 100/255/27 
f 145/259/27 100/255/27 149/258/27 
f 149/258/27 150/260/27 145/259/27 
f 95/261/29 143/262/29 151/263/29 
f 151/263/48 96/264/48 95/261/48 
f 151/263/27 143/262/27 152/265/27 
f 152/265/27 153/266/27 151/263/27 
f 96/264/29 151/263/29 154/267/29 
f 154/267/29 146/268/29 96/264/29 
f 154/267/27 151/263/27 153/266/27 
f 153/266/27 155/269/27 154/267/27 
f 148/270/29 156/271/29 149/258/29 
f 149/258/27 147/257/27 148/270/27 
f 156/271/27 157/272/27 150/260/27 
f 150/260/27 149/258/27 156/271/27 
f 146/268/29 154/267/29 156/271/29 
f 156/271/29 148/270/29 146/268/29 
f 156/271/29 154/267/29 155/269/29 
f 155/269/27 157/272/27 156/271/27 
f 141/273/49 142/274/49 116/186/49 
f 116/186/49 115/185/49 141/273/49 
f 142/275/23 137/276/23 108/178/23 
f 108/178/23 116/186/23 142/275/23 
f 137/277/50 138/278/50 109/179/50 
f 109/179/50 108/178/50 137/277/50 
f 138/279/51 140/280/51 110/180/51 
f 110/180/51 109/179/51 138/279/51 
f 140/281/52 139/282/52 107/177/52 
f 107/177/52 110/180/52 140/281/52 
f 139/283/21 141/284/21 115/185/21 
f 115/185/21 107/177/21 139/283/21 
f 120/190/3 119/189/3 158/285/3 
f 158/285/3 159/286/3 120/190/3 
f 125/248/6 124/287/6 160/288/6 
f 160/288/6 161/289/6 125/248/6 
f 158/290/2 119/291/2 101/171/2 
f 101/171/2 144/250/2 158/290/2 
f 162/292/3 142/247/3 141/244/3 
f 141/244/20 163/293/20 162/292/20 
f 124/209/3 127/206/3 164/294/3 
f 164/294/3 160/295/3 124/209/3 
f 141/244/3 120/190/3 159/286/3 
f 159/286/20 163/293/20 141/244/20 
f 164/294/3 127/206/3 142/247/3 
f 142/247/3 162/292/3 164/294/3 
f 143/249/25 125/248/25 161/289/25 
f 161/289/25 152/296/25 143/249/25 
f 144/297/24 165/298/24 159/286/24 
f 159/286/24 158/285/24 144/297/24 
f 163/293/24 159/286/24 165/298/24 
f 165/298/24 166/299/24 163/293/24 
f 167/300/24 162/292/24 163/293/24 
f 163/293/24 166/299/24 167/300/24 
f 161/301/24 160/295/24 164/294/24 
f 164/294/24 168/302/24 161/301/24 
f 168/302/24 164/294/24 162/292/24 
f 162/292/24 167/300/24 168/302/24 
f 145/303/24 150/304/24 165/298/24 
f 165/298/24 144/297/24 145/303/24 
f 150/304/24 157/305/24 166/299/24 
f 166/299/24 165/298/24 150/304/24 
f 166/299/24 157/305/24 155/306/24 
f 155/306/24 167/300/24 166/299/24 
f 167/300/24 155/306/24 153/307/24 
f 153/307/24 168/302/24 167/300/24 
f 168/302/24 153/307/24 152/308/24 
f 152/308/24 161/301/24 168/302/24 
f 169/309/34 170/310/34 171/311/34 
f 171/311/35 170/312/35 172/313/35 
f 172/313/26 170/314/26 173/315/26 
f 173/315/1 170/316/1 169/309/1 
f 169/309/3 171/311/3 172/313/3 
f 172/313/3 173/315/3 169/309/3 
# 334 faces

